<svg width="80" height="80" viewBox="0 0 80 80" fill="none" xmlns="http://www.w3.org/2000/svg">
<path fill-rule="evenodd" clip-rule="evenodd" d="M39.5696 5H40.4262C43.1724 5.04263 45.9149 5.39487 48.5774 6.0729C51.1411 6.72142 53.6306 7.66326 55.9826 8.87219C60.1945 11.033 63.9577 14.0607 66.9716 17.7111C69.7908 21.1184 71.9544 25.0657 73.3092 29.2757C74.5692 33.1778 75.1372 37.3026 74.9721 41.4001C74.7516 47.0679 73.1205 52.673 70.2679 57.5747C67.9344 61.5994 64.7872 65.1488 61.0714 67.9471C56.6804 71.2641 51.4956 73.5195 46.0751 74.4692C42.025 75.1842 37.8481 75.1772 33.8004 74.4461C29.7152 73.7126 25.7636 72.2435 22.1914 70.13C18.1134 67.7234 14.5351 64.4772 11.7429 60.653C8.73003 56.5368 6.63542 51.7533 5.65641 46.7472C4.92289 43.0229 4.8036 39.1787 5.30124 35.416C5.96726 30.345 7.76595 25.4267 10.5278 21.1219C13.0918 17.1138 16.4852 13.6398 20.4318 10.9819C24.4447 8.27238 29.0269 6.41098 33.7928 5.55564C35.6984 5.20973 37.6333 5.03027 39.5695 5.00008L39.5696 5ZM38.5218 6.84015C33.7672 7.0498 29.0617 8.29933 24.8311 10.4791C20.5267 12.6876 16.716 15.8515 13.7586 19.6804C10.6187 23.7304 8.43586 28.5174 7.44566 33.5456C6.68715 37.3618 6.61014 41.3116 7.21498 45.1549C7.64037 47.8649 8.40341 50.5225 9.48339 53.0446C11.3963 57.527 14.3115 61.578 17.9583 64.8118C21.4555 67.9216 25.6184 70.2782 30.0854 71.6735C34.0773 72.9285 38.3083 73.4087 42.4806 73.1032C45.8413 72.8576 49.1633 72.0926 52.293 70.844C54.7745 69.8556 57.1351 68.5641 59.306 67.0077C61.234 65.6281 63.0088 64.0365 64.6004 62.2796C68.082 58.4434 70.6424 53.779 72.0087 48.782C73.0155 45.1226 73.3853 41.2897 73.0992 37.5054C72.7784 33.2153 71.6114 28.9909 69.6841 25.1449C67.6188 21.009 64.6745 17.3162 61.1045 14.3792C57.2898 11.2316 52.7604 8.95648 47.9577 7.7757C44.8789 7.01321 41.69 6.70269 38.5217 6.84019L38.5218 6.84015Z" fill="#CD1141"/>
<path fill-rule="evenodd" clip-rule="evenodd" d="M38.5218 6.8401C41.6901 6.7026 44.8789 7.01323 47.9578 7.77561C52.7604 8.95639 57.2899 11.2316 61.1046 14.3791C69.888 21.6049 72.7292 31.4981 73.0993 37.5053C73.3854 41.2896 73.0156 45.1226 72.0088 48.7819C70.6426 53.7789 68.0821 58.4433 64.6005 62.2796C63.009 64.0364 61.234 65.628 59.3061 67.0078C57.1352 68.5641 54.7745 69.8556 52.293 70.8439C49.1633 72.0925 45.8414 72.8575 42.4807 73.1031C38.3083 73.4086 34.0773 72.9284 30.0855 71.6734C25.6184 70.2781 21.4556 67.9216 17.9583 64.8117C14.3115 61.578 11.3963 57.5269 9.48347 53.0445C8.40348 50.5224 7.64045 47.8648 7.21506 45.1548C6.60999 41.3124 6.68711 37.3623 7.44573 33.5456C8.43593 28.5174 10.6188 23.7303 13.7586 19.6803C16.7161 15.8514 20.5268 12.6875 24.8312 10.479C29.0618 8.29924 33.7672 7.04971 38.5218 6.84006L38.5218 6.8401ZM37.7038 10.8121C37.7051 12.9568 37.7038 15.1015 37.7044 17.2462C38.0869 17.6286 38.47 18.0111 38.8518 18.3943C39.9309 18.3938 41.0101 18.3945 42.089 18.3939C42.4763 18.0187 42.8629 17.6426 43.2501 17.2671C43.0866 15.3495 43.238 12.796 43.2345 10.8065C42.8524 10.4265 42.4712 10.0459 42.0916 9.66382C41.0117 9.66122 39.9318 9.66348 38.8521 9.66246C38.4697 10.0463 38.0856 10.4281 37.7038 10.8121L37.7038 10.8121ZM46.4721 19.1591C46.9818 19.3691 47.4932 19.5754 48.0026 19.7866C48.6635 18.2208 49.325 16.6555 49.9852 15.0897C50.1024 16.9916 50.2175 18.8935 50.3336 20.7956C50.81 20.991 51.285 21.1887 51.7604 21.3869C52.8849 18.7076 54.0097 16.0287 55.1351 13.3501C54.6139 13.1283 54.0918 12.9087 53.5699 12.6885C53.0567 13.9133 52.5457 15.1386 52.033 16.3634C51.9484 16.5492 51.8874 16.7469 51.7871 16.9247C51.7983 16.2278 51.7814 15.5297 51.7801 14.8322C51.7734 13.8627 51.7667 12.8928 51.7601 11.9232C51.1345 11.6553 50.508 11.3894 49.8819 11.123C48.7447 13.8016 47.6087 16.4806 46.4721 19.1591L46.4721 19.1591ZM26.0839 13.1757C27.2435 15.8432 28.4032 18.5106 29.563 21.1782C30.0855 20.9591 30.6067 20.7377 31.1285 20.5179C30.7467 19.6358 30.3629 18.7544 29.9805 17.8727C30.2478 17.7466 30.5144 17.6187 30.7807 17.4898C31.5352 18.2204 32.2889 18.9517 33.0437 19.6826C33.611 19.4264 34.1799 19.1735 34.747 18.9163C33.9355 18.1275 33.1232 17.3391 32.3119 16.5503C32.4392 16.0975 32.5677 15.6449 32.6943 15.1918C32.2752 14.1956 31.8597 13.1977 31.4413 12.2011C30.9083 11.9806 30.3754 11.7597 29.8414 11.5408C28.5893 12.0868 27.337 12.6323 26.0839 13.1757L26.0839 13.1757ZM58.4061 17.6642C58.7888 18.0352 59.1716 18.4063 59.5538 18.7776C57.9537 20.4128 56.3527 22.0477 54.7526 23.6833C55.1822 24.1001 55.6107 24.5176 56.0396 24.9355C57.6408 23.3125 59.2403 21.6883 60.8412 20.0648C61.2239 20.4358 61.607 20.8065 61.9892 21.1781C62.4302 20.738 62.8705 20.2967 63.3112 19.8564C62.1171 18.673 60.9226 17.4898 59.7278 16.3075C59.2875 16.7599 58.8461 17.2114 58.4061 17.6642ZM19.8576 17.6286C19.1029 18.4053 18.3494 19.1837 17.5947 19.9604C17.6061 20.5054 17.6173 21.0505 17.6297 21.5955C19.1614 23.08 20.6922 24.565 22.2237 26.0501C22.7678 26.0497 23.3122 26.0497 23.8563 26.0501C24.6104 25.2723 25.3654 24.4957 26.1186 23.7174C26.1063 23.1834 26.097 22.6494 26.0836 22.1158C26.0887 22.0763 26.0512 22.0535 26.0298 22.0277C24.5264 20.5512 23.0278 19.0698 21.524 17.5936C20.9684 17.607 20.4129 17.6182 19.8576 17.6286L19.8576 17.6286ZM37.9323 21.348C37.4729 21.3477 37.0064 21.3611 36.5609 21.4864C36.2634 21.5832 35.9541 21.6388 35.6452 21.6811C35.4279 21.7569 35.2111 21.8349 34.9957 21.9153C34.8815 21.9539 34.7899 22.0398 34.6721 22.0684C34.5398 22.1079 34.3972 22.1191 34.2744 22.1855C33.7134 22.5359 33.0821 22.7475 32.4722 22.9941C32.1931 23.1006 31.9424 23.2655 31.6815 23.4087C31.3557 23.6193 31.0289 23.8328 30.6732 23.991C30.4602 24.0737 30.2776 24.2166 30.0702 24.3101C29.9038 24.3754 29.7768 24.5059 29.6321 24.6057C29.3167 24.8562 28.9641 25.0557 28.6549 25.3144C28.3968 25.5305 28.1108 25.7182 27.8941 25.9794C28.0786 25.9571 28.2451 25.8712 28.4216 25.82C28.6645 25.7806 28.8732 25.6338 29.1137 25.5858C29.3339 25.5219 29.5283 25.3879 29.7519 25.3344C30.1081 25.2737 30.4265 25.0951 30.7632 24.9736C31.0594 24.8664 31.3544 24.756 31.6506 24.6488C32.02 24.5664 32.3739 24.4269 32.7216 24.279C32.84 24.3264 32.9695 24.3136 33.0942 24.3219C33.4719 24.3356 33.8493 24.3589 34.2263 24.3852C34.5496 24.4161 34.872 24.4566 35.1959 24.4845C35.6547 24.5078 36.1138 24.5269 36.573 24.5523C36.7633 24.748 36.9917 24.9039 37.2097 25.0669C37.3589 25.2158 37.5078 25.3647 37.6565 25.5145C37.9447 25.4551 38.2445 25.5673 38.5327 25.4961C39.0975 25.5282 39.6626 25.561 40.2274 25.5977C40.3019 25.6819 40.4068 25.7268 40.5001 25.7866C40.6652 25.8855 40.8275 25.9892 40.9943 26.086C41.4496 26.2833 41.8919 26.5092 42.3427 26.717C42.4004 26.7463 42.4814 26.7647 42.4811 26.8462C42.7443 26.7409 43.0089 26.64 43.2724 26.536C43.6664 26.6623 44.0596 26.7911 44.4536 26.9184C44.5232 27.0342 44.5932 27.1501 44.662 27.2668C44.8023 27.2735 44.9451 27.2545 45.0842 27.2764C45.2516 27.4278 45.3766 27.6239 45.5618 27.7562C45.6792 27.8752 45.7944 27.9981 45.8955 28.1321C46.2039 28.2017 46.5119 28.2721 46.8196 28.3453C46.9134 28.4853 47.0076 28.6252 47.0995 28.7668C47.1334 28.8161 47.1655 28.8754 47.2295 28.8906C47.5975 29.0192 47.9542 29.1869 48.3393 29.2629C49.0454 29.422 49.7717 29.5548 50.4978 29.4736C50.6812 29.4434 50.8688 29.4762 51.0518 29.4465C51.1298 29.3886 51.1218 29.2636 51.0696 29.1894C50.8663 28.8438 50.6767 28.4881 50.4339 28.1677C50.077 27.6747 49.7214 27.1807 49.366 26.6865C48.971 26.2148 48.5158 25.7977 48.115 25.3309C47.884 25.0964 47.6358 24.8792 47.3984 24.6513C47.203 24.4759 47.0242 24.2819 46.8122 24.1259C46.5829 23.9507 46.3542 23.7746 46.1263 23.5977C46.007 23.5051 45.8637 23.4532 45.7324 23.3823C45.2628 23.1115 44.8086 22.814 44.3292 22.561C44.0752 22.4303 43.8353 22.2654 43.5572 22.1891C43.1306 22.056 42.7169 21.8867 42.3001 21.7267C42.0277 21.6036 41.7273 21.5715 41.4384 21.5071C41.2462 21.475 41.0569 21.4114 40.8599 21.4213C40.6954 21.4285 40.5379 21.3757 40.3786 21.3448C40.1711 21.2962 39.9563 21.3061 39.7457 21.2857C39.6289 21.2771 39.5147 21.2471 39.3975 21.2469C38.9072 21.243 38.4185 21.2882 37.9323 21.348L37.9323 21.348ZM43.7195 21.637C43.8016 21.6967 43.9009 21.7235 43.997 21.7541C44.292 21.8549 44.585 21.9621 44.8688 22.0916C44.9707 22.1428 45.087 22.1572 45.1873 22.2126C45.3731 22.3548 45.5936 22.4408 45.7934 22.5617C46.1346 22.7545 46.4912 22.928 46.7897 23.1869C46.9974 23.3756 47.2288 23.536 47.454 23.703C47.7445 23.9633 48.0853 24.1673 48.3513 24.4566C48.6514 24.8339 49.0322 25.1349 49.3485 25.498C49.5306 25.707 49.6967 25.9304 49.8926 26.1277C50.1427 26.3791 50.348 26.6693 50.5774 26.9388C50.6614 27.0377 50.7674 27.1224 50.8154 27.2472C50.9723 27.545 51.1657 27.8222 51.3696 28.0897C51.5494 28.309 51.7245 28.5371 51.8431 28.7968C51.9106 28.9319 51.9767 29.085 52.1221 29.1538C52.1986 29.2143 52.2758 29.1271 52.3503 29.1066C52.519 29.0647 52.6554 28.9526 52.8146 28.8871C53.0313 28.7493 53.2381 28.5912 53.4063 28.3952C53.5896 28.1867 53.7949 27.9908 53.9206 27.7397C53.9953 27.5896 54.1392 27.44 54.0866 27.2593C53.9827 27.0521 53.8238 26.879 53.7059 26.6802C53.6708 26.6209 53.6333 26.5625 53.5801 26.5188C53.3714 26.3327 53.1353 26.1811 52.9195 26.004C52.4522 25.6231 51.9707 25.2574 51.5345 24.8399C51.4345 24.7425 51.3092 24.6802 51.1919 24.6083C50.8934 24.4295 50.5952 24.2506 50.2971 24.0715C49.8691 23.8277 49.466 23.5367 49.0087 23.3479C48.7278 23.2187 48.4468 23.0906 48.1659 22.9613C47.5435 22.6635 46.8915 22.4331 46.2395 22.2091C45.9341 22.1025 45.6315 21.9863 45.3231 21.8886C45.0069 21.8081 44.6966 21.7028 44.3736 21.6516C44.1803 21.6195 43.9896 21.5625 43.7923 21.5587C43.7676 21.5845 43.743 21.6106 43.7195 21.637L43.7195 21.637ZM59.6234 27.3359C59.4373 27.8574 59.2524 28.38 59.0663 28.9015C59.5302 29.864 59.9938 30.8266 60.4577 31.7888C60.9685 31.9747 61.4795 32.1589 61.9894 32.3463C63.927 31.4305 65.8641 30.5144 67.8005 29.5971C67.9718 29.0749 68.1478 28.554 68.3211 28.0325C67.8538 27.0591 67.3993 26.0781 66.923 25.1098C66.4174 24.9297 65.9067 24.7617 65.3989 24.5876C63.4741 25.5047 61.5491 26.4211 59.6234 27.3359V27.3359ZM13.7325 25.3879C13.0369 26.9069 12.3411 28.4258 11.6454 29.9449C12.2249 30.2121 12.8056 30.4775 13.3848 30.7457C13.6049 30.2586 13.8254 29.7714 14.0456 29.2846C16.1335 30.2112 18.2211 31.1388 20.3082 32.0679C20.5518 31.5111 20.7956 30.9541 21.0391 30.3973C18.9514 29.4692 16.8638 28.5412 14.7762 27.6134C14.9976 27.1272 15.2168 26.64 15.437 26.1536C14.8697 25.8968 14.3014 25.6415 13.7325 25.3879L13.7325 25.3879ZM54.2186 28.7023C53.9934 28.9233 53.7655 29.1436 53.512 29.3322C53.3303 29.4853 53.1165 29.5923 52.9192 29.7227C52.8069 29.7985 52.678 29.8418 52.5546 29.8939C52.4829 29.9184 52.4349 29.9998 52.4613 30.0737C52.6716 30.6859 53.0461 31.225 53.2565 31.8372C53.3217 32.0405 53.4187 32.2317 53.4827 32.4357C53.5915 32.7746 53.7248 33.1062 53.805 33.4536C53.8944 33.6865 53.9444 33.9306 54.0058 34.1718C54.0309 34.2415 54.0446 34.343 54.1281 34.3665C54.5203 34.3674 54.9127 34.3538 55.3046 34.3337C55.6457 34.3194 55.9855 34.3688 56.3248 34.4016C56.7117 34.4728 57.0985 34.5453 57.4862 34.6141C57.8409 34.7 58.1721 34.8579 58.5225 34.9587C58.5429 34.9319 58.5622 34.9049 58.581 34.8772C58.5502 34.7344 58.4782 34.6046 58.4422 34.4633C58.422 34.382 58.4069 34.2994 58.3762 34.2221C58.2838 33.9882 58.2291 33.7415 58.1384 33.5074C58.0554 33.2554 57.9312 33.0202 57.8225 32.779C57.6544 32.4204 57.4883 32.0605 57.3461 31.6911C57.265 31.4916 57.2163 31.2743 57.076 31.105C56.8326 30.7899 56.6754 30.4222 56.4781 30.0788C56.4209 29.9621 56.3139 29.8821 56.2439 29.7746C55.872 29.2547 55.4965 28.7373 55.1246 28.2174C55.0294 28.0815 54.8955 27.9793 54.7964 27.8466C54.6066 28.1337 54.4379 28.4365 54.2186 28.7023L54.2186 28.7023ZM39.9049 28.2864C39.7367 28.2899 39.5662 28.3268 39.4006 28.2825C39.253 28.2816 39.1066 28.3035 38.9596 28.3093C38.9456 28.3328 38.9323 28.3563 38.9196 28.3802C38.6007 28.3984 38.2822 28.4162 37.9638 28.4349C37.8603 28.4388 37.7537 28.4614 37.6542 28.4245C37.1025 28.7423 36.5535 29.0657 36.0008 29.3813C35.9273 29.4188 35.8881 29.4946 35.8369 29.555C35.6722 29.4932 35.4914 29.5146 35.3199 29.4904C34.9085 29.4434 34.4941 29.4625 34.0812 29.459C33.6685 29.4555 33.2543 29.4755 32.844 29.4211C32.7903 29.4067 32.7419 29.3781 32.6923 29.3552C32.2592 29.6957 31.8247 30.0342 31.3909 30.3744C31.2755 30.4695 31.1441 30.5484 31.053 30.6703C30.8866 30.817 30.7087 30.9506 30.5389 31.0932C30.3326 30.9936 30.1306 30.8854 29.9228 30.7896C29.8015 30.838 29.6876 30.7199 29.5668 30.761C29.2619 30.8329 28.9577 30.9064 28.6536 30.9806C28.575 30.9985 28.4954 31.0292 28.414 31.0137C28.1629 30.9745 27.9125 30.9319 27.6611 30.8953C27.5386 30.8764 27.4139 30.865 27.2975 30.8205C27.2363 30.8896 27.1855 30.9697 27.1129 31.0276C26.9764 31.1021 26.83 31.1572 26.6916 31.2274C26.6582 31.2734 26.6204 31.3156 26.5755 31.35C26.3193 31.5498 26.0685 31.7563 25.8128 31.9568C25.2744 32.3418 24.7175 32.7011 24.1923 33.1042C23.6424 33.517 23.0945 33.9319 22.5341 34.3302C22.5332 34.6042 22.398 34.8454 22.2994 35.093C22.2287 35.2556 22.2147 35.4345 22.1752 35.6055C22.1021 35.996 22.0479 36.39 21.9805 36.7817C21.9442 36.9757 21.8822 37.1648 21.8597 37.3615C21.8027 37.8186 21.7476 38.2759 21.692 38.7334C21.6467 39.0374 21.6601 39.3457 21.6458 39.6519C21.6306 40.1822 21.6169 40.7127 21.6009 41.2428C21.5997 41.3414 21.5796 41.4475 21.6334 41.5371C21.6839 41.6326 21.669 41.744 21.6776 41.8483C21.6904 42.0466 21.6881 42.2464 21.7181 42.4434C21.8221 42.3534 21.9144 42.2509 22.0111 42.1538C22.8976 41.2476 23.7837 40.341 24.6701 39.4348C24.7443 39.3607 24.8101 39.2706 24.9129 39.2344C25.213 39.1125 25.5058 38.9712 25.8089 38.8576C26.0941 38.8287 26.3823 38.8397 26.6677 38.814C26.7795 38.7182 26.8644 38.5938 26.9665 38.4875C27.0603 38.3705 27.1887 38.2737 27.2348 38.1251C27.5144 38.1035 27.7932 38.0719 28.0722 38.0449C28.3147 38.0153 28.5613 38.0121 28.7986 37.9507C28.9832 37.9434 29.1681 37.9504 29.3526 37.9491C29.4324 37.8588 29.4971 37.7496 29.6059 37.6907C29.9972 37.4588 30.3807 37.2141 30.7594 36.962C30.802 36.9357 30.8443 36.8994 30.8983 36.9051C31.4711 36.9042 32.0441 36.9042 32.6172 36.9051C32.7247 36.9236 32.8304 36.9566 32.9412 36.9585C33.1727 36.9682 33.4073 37.0371 33.6374 36.9783C33.7763 36.9464 33.923 36.9398 34.0573 36.8927C34.2703 36.6925 34.4713 36.4794 34.6804 36.2747C35.0635 35.8834 35.4634 35.5095 35.8567 35.1286C35.8936 35.0936 35.9318 35.0513 35.9874 35.0529C36.361 35.0147 36.734 34.9689 37.1078 34.9298C37.1574 34.9303 37.1965 34.904 37.2201 34.86C37.2663 34.8992 37.3149 34.9368 37.3723 34.96C37.5517 35.0366 37.7286 35.1191 37.9087 35.1947C38.0497 35.1429 38.2024 35.1413 38.3497 35.1198C38.6087 35.0974 38.8607 35.0326 39.1166 34.9902C39.3269 35.1343 39.5118 35.3131 39.7137 35.4691C39.7539 35.4531 39.7956 35.4385 39.84 35.4395C40.191 35.4293 40.5423 35.4208 40.893 35.4087C40.9525 35.4103 40.9976 35.3663 41.047 35.3392C41.3345 35.3466 41.6222 35.3606 41.9102 35.3678C41.963 35.3669 42.0165 35.3771 42.0642 35.4029C42.1116 35.394 42.1597 35.3851 42.208 35.3759C42.2698 35.2994 42.37 35.2789 42.4536 35.2349C42.5357 35.1903 42.6268 35.1694 42.7164 35.1442C42.8657 35.0764 43.0108 34.9998 43.1534 34.9186C43.3039 34.8508 43.4642 34.8072 43.6182 34.7472C43.6271 34.7296 43.6452 34.6949 43.6542 34.6774C44.2008 34.4706 44.7417 34.2459 45.2964 34.0617C45.4016 34.1625 45.5471 34.1988 45.6737 34.2644C45.754 34.3102 45.8538 34.2774 45.9333 34.3255C46.054 34.3929 46.1714 34.4661 46.292 34.5342C46.411 34.4213 46.5927 34.4136 46.7034 34.2914C46.8011 34.2695 46.8978 34.2402 46.9981 34.23C47.2552 34.2841 47.5062 34.3656 47.7623 34.4237C47.8355 34.4397 47.909 34.3942 47.9816 34.4114C48.2154 34.5224 48.4817 34.5132 48.7274 34.5848C48.9056 34.6427 49.0758 34.7251 49.2562 34.7761C49.4077 34.7772 49.5696 34.7112 49.7052 34.8114C49.7557 34.7942 49.8076 34.7776 49.8617 34.7709C50.2448 34.726 50.6282 34.6809 51.0122 34.6444C51.7533 34.5835 52.4927 34.5053 53.2319 34.4276C53.2724 34.3449 53.1998 34.2574 53.1873 34.1743C53.0286 33.5551 52.8209 32.9493 52.5749 32.3596C52.3678 31.7044 52.125 31.0548 51.7661 30.4661C51.7079 30.3817 51.6808 30.2526 51.5809 30.2131C51.2302 30.2267 50.8808 30.2675 50.5302 30.2815C50.1821 30.2929 49.8296 30.3171 49.4859 30.2487C48.7907 30.1342 48.0777 30.0698 47.4168 29.8112C47.1177 29.7087 46.8214 29.5974 46.5204 29.5018C46.4711 29.5204 46.4186 29.5267 46.3674 29.519C46.1166 29.4927 45.8659 29.4701 45.6155 29.445C45.5265 29.4369 45.4344 29.415 45.3485 29.4485C45.1618 29.3141 44.9859 29.165 44.7978 29.0329C44.5982 28.9701 44.4783 28.7843 44.3176 28.6615C44.3163 28.6431 44.3139 28.6061 44.3125 28.5877C44.149 28.5788 43.9816 28.4916 43.8206 28.5486C43.6803 28.5021 43.5486 28.4318 43.4095 28.3856C43.1655 28.3958 42.9227 28.4391 42.6789 28.4439C42.4296 28.3674 42.194 28.2491 41.9439 28.1756C41.2643 28.2053 40.585 28.252 39.9049 28.2863L39.9049 28.2864ZM54.3765 35.3256C54.3841 35.6887 54.5073 36.0346 54.5648 36.3906C54.7103 37.1619 54.8101 37.9425 54.856 38.7262C54.8595 39.0555 54.8834 39.3846 54.8897 39.7139C54.8958 39.9028 54.8751 40.0954 54.9244 40.281C54.9935 40.3238 55.0621 40.3771 55.1465 40.3859C55.3365 40.4155 55.5245 40.4581 55.7052 40.5257C56.2474 40.6969 56.7924 40.8795 57.2787 41.1807C57.7515 41.5024 58.2205 41.8484 58.5709 42.3069C58.7895 42.4581 58.8479 42.7476 59.0643 42.9007C59.1219 42.8167 59.0949 42.7104 59.1124 42.6162C59.1776 42.0539 59.2566 41.4929 59.2778 40.9272C59.3234 40.4289 59.3071 39.9291 59.3099 39.4297C59.3201 39.0151 59.2584 38.6037 59.2317 38.1907C59.2155 37.8842 59.1582 37.5829 59.1133 37.2799C59.0496 36.8882 58.9917 36.4953 58.9189 36.1052C58.8842 35.9269 58.7144 35.8331 58.5709 35.7501C58.47 35.6852 58.3474 35.6776 58.2376 35.6371C58.1387 35.6031 58.0461 35.5509 57.9431 35.5327C57.7499 35.4945 57.5653 35.4249 57.3753 35.3766C56.9831 35.2798 56.5765 35.2747 56.1797 35.2063C55.6547 35.17 55.1281 35.1547 54.602 35.1687C54.5038 35.1677 54.4029 35.2279 54.3764 35.3256L54.3765 35.3256ZM52.6369 35.3459C52.1495 35.4045 51.66 35.442 51.1733 35.5028C51.0676 35.5161 50.9699 35.5592 50.8707 35.5941C50.494 35.7284 50.1169 35.8618 49.7405 35.996C49.6463 36.0279 49.5528 36.0756 49.4512 36.067C48.7506 36.0418 48.0497 36.023 47.3489 36.0024C47.2366 36.003 47.1393 35.9397 47.0394 35.8978C47.0266 35.9369 47.0181 35.9814 46.977 36.0018C46.8211 36.1112 46.6642 36.2194 46.509 36.3295C46.4316 36.383 46.3575 36.4505 46.2594 36.4584C46.1571 36.5472 46.06 36.6423 45.9603 36.7343C45.8691 36.8217 45.7647 36.8987 45.6995 37.0092C45.2486 37.075 44.7924 37.1142 44.344 37.1908C43.9517 37.4941 43.5686 37.8098 43.18 38.1181C43.1183 38.1782 43.0223 38.1382 42.9525 38.1811C42.7623 38.2877 42.5752 38.4003 42.3859 38.5085C42.294 38.5652 42.1803 38.548 42.0817 38.5827C41.9879 38.6406 41.9055 38.7154 41.8148 38.7774C41.7537 38.7557 41.6906 38.7405 41.6267 38.7373C41.2464 38.7087 40.8672 38.6721 40.4869 38.6441C40.4287 38.7128 40.366 38.7783 40.3136 38.8518C40.1994 39.039 40.0347 39.1869 39.8958 39.3543C39.6536 39.6365 39.3939 39.9035 39.1636 40.195C39.0678 40.2638 38.9987 40.3601 38.9201 40.4464C38.5253 40.889 38.1327 41.3335 37.7375 41.7758C37.5726 41.7771 37.4034 41.7552 37.2484 41.8226C36.8561 41.8891 36.467 41.9813 36.0711 42.0227C36.0699 42.0399 36.0674 42.0743 36.0663 42.0915C35.4275 42.436 34.7927 42.7874 34.1538 43.1317C33.8976 43.0998 33.6418 43.0652 33.3857 43.0347C33.2832 43.013 33.1985 43.1024 33.0973 43.0922C32.8354 43.0689 32.5733 43.0489 32.3114 43.0273C32.0451 43.3162 31.7785 43.6048 31.5121 43.8937C31.4711 43.9462 31.3989 43.9441 31.3407 43.9599C31.1621 43.9899 30.9865 44.0471 30.8036 44.0363C30.605 44.0159 30.4408 44.1725 30.24 44.1448C30.1713 44.2267 30.0806 44.2845 29.9969 44.3495C29.7455 44.5425 29.4935 44.7344 29.2431 44.9289C29.1696 44.995 29.0595 44.9884 28.9854 45.0533C28.4744 45.4551 27.9621 45.8555 27.4495 46.2558C27.4202 46.427 27.3315 46.5794 27.2713 46.741C26.991 47.4149 26.7149 48.0905 26.4316 48.7632C26.4542 48.7991 26.4769 48.8357 26.5 48.8726C25.9438 48.9193 25.3876 48.9671 24.8315 49.0114C24.6721 49.1609 24.511 49.3091 24.3516 49.4591C24.29 49.5144 24.2705 49.5982 24.2396 49.6717C24.4884 50.0013 24.7396 50.329 24.9876 50.6593C25.1795 50.9472 25.3514 51.2486 25.5439 51.5362C25.6998 51.739 25.8561 51.9416 26.0157 52.1412C26.2509 52.3938 26.4927 52.6404 26.7305 52.8905C26.7651 52.9198 26.7772 52.9631 26.7884 53.0066C26.9751 53.0506 27.1527 53.1257 27.3381 53.1759C27.7067 53.2783 28.0623 53.4171 28.4149 53.5644C28.6574 53.6526 28.8874 53.7881 29.1477 53.8162C29.218 53.8716 29.287 53.9295 29.3568 53.9867C29.5489 53.8632 29.7758 53.7955 29.9457 53.639C30.4217 53.7535 30.8974 53.869 31.3725 53.9867C31.6961 53.8254 32.0196 53.6641 32.3426 53.5009C32.4467 53.4429 32.5705 53.4563 32.6849 53.4413C33.3601 53.3777 34.0359 53.3197 34.7116 53.2561C34.9935 52.7982 35.2744 52.34 35.555 51.8815C35.6772 51.6524 35.8955 51.4999 36.0663 51.3103C36.0848 51.3094 36.1221 51.3075 36.1405 51.3066C36.2573 51.1834 36.3893 51.074 36.4857 50.933C36.6215 50.7926 36.7696 50.6644 36.9102 50.5288C37.0807 50.3811 37.2201 50.1992 37.4063 50.0697C37.6289 49.875 37.8116 49.6347 38.0496 49.4578C38.0276 49.3719 37.9704 49.2863 37.9968 49.1963C38.072 48.8797 38.1504 48.5639 38.225 48.2476C38.4579 48.1875 38.6911 48.1299 38.9126 48.0347C38.9307 47.9254 39.0019 47.8384 39.0567 47.7456C39.2327 47.4544 39.4092 47.1635 39.5855 46.8724C39.6021 46.8276 39.6465 46.8173 39.6892 46.811C39.7739 46.6417 39.8512 46.4689 39.9317 46.2977C39.9482 46.2643 39.9632 46.2258 40.001 46.2115C40.1341 46.1393 40.2734 46.0791 40.4071 46.0079C40.4615 45.9837 40.4885 45.9277 40.5238 45.8835C40.5416 45.8911 40.5776 45.9063 40.5955 45.914C40.8544 45.7759 41.1373 45.6855 41.3861 45.5283C41.501 45.4274 41.6487 45.3813 41.7839 45.3158C42.2115 45.1191 42.6401 44.9241 43.0674 44.7268C43.1292 44.6921 43.2004 44.6959 43.2695 44.6937C43.2702 44.6622 43.2717 44.6314 43.2739 44.601C43.3033 44.5731 43.3468 44.5537 43.3544 44.5098C43.4096 44.3288 43.4598 44.1464 43.5151 43.9656C43.6487 43.9087 43.7821 43.8511 43.9148 43.7916C44.1446 43.6646 44.4169 43.7308 44.6647 43.6818C44.8557 43.5532 45.0329 43.4056 45.2197 43.271C45.5197 43.3041 45.8261 43.299 46.121 43.3661C46.5086 43.1794 46.9124 43.0282 47.3057 42.8539C47.2761 42.6646 47.3945 42.5074 47.4638 42.3422C47.4947 42.2801 47.5151 42.2099 47.5612 42.1576C47.7222 42.1064 47.8905 42.081 48.0518 42.0301C48.3115 41.9161 48.5994 41.8936 48.8676 41.8064C48.9425 41.7436 49.0004 41.6641 49.0662 41.5928C49.1607 41.4757 49.2986 41.4048 49.394 41.288C49.5814 41.323 49.7824 41.3093 49.9585 41.3914C50.1055 41.4201 50.2565 41.4245 50.4026 41.4614C50.8312 41.2689 51.249 41.0462 51.6993 40.9072C52.0467 40.7515 52.4174 40.659 52.7855 40.5683C53.1352 40.5036 53.4843 40.4148 53.8423 40.4162C53.9621 40.4244 54.0949 40.3296 54.0815 40.1998C54.0405 39.8694 53.9721 39.5407 53.9858 39.206C53.9568 38.9209 53.9135 38.6359 53.9167 38.3482C53.9304 37.9819 53.8365 37.6243 53.7964 37.2627C53.7637 36.9656 53.7169 36.6703 53.6472 36.3798C53.5944 36.0495 53.5597 35.7125 53.4522 35.3943C53.3996 35.238 53.2068 35.2722 53.0796 35.2728C52.9494 35.3596 52.7837 35.3265 52.6369 35.3459L52.6369 35.3459ZM52.5355 41.4401C52.266 41.4942 52.0203 41.6186 51.7644 41.7131C51.5125 41.8101 51.2809 41.9511 51.0364 42.0644C50.752 42.2022 50.4669 42.3393 50.1898 42.4911C50.073 42.5728 49.9855 42.6884 49.8811 42.7842C49.8143 42.8602 49.7108 42.9168 49.6969 43.0263C49.5903 43.027 49.484 43.0254 49.3781 43.0296C49.3107 43.0906 49.219 43.1059 49.136 43.1345C48.9211 43.2039 48.706 43.2708 48.4915 43.3401C48.4885 43.3761 48.4865 43.4126 48.4862 43.4499C48.4547 43.4692 48.4238 43.489 48.3933 43.5097C48.3828 43.6137 48.3191 43.6987 48.2695 43.7869C48.1798 43.9415 48.0926 44.0974 48.0038 44.2523C47.9863 44.2937 47.95 44.316 47.9074 44.323C47.8479 44.4843 47.7623 44.658 47.6032 44.7412C47.0633 45.0799 46.5271 45.4249 45.9875 45.7641C45.8303 45.8347 45.7026 45.9512 45.5668 46.0546C45.5143 46.2854 45.4618 46.5163 45.4102 46.7474C45.3953 46.8785 45.2371 46.922 45.2048 47.0446C44.9702 47.8973 44.7328 48.7495 44.4989 49.6022C44.491 49.7234 44.5651 49.8348 44.5931 49.9513C44.2642 50.1057 43.9348 50.259 43.6059 50.4127C43.5342 50.4496 43.4519 50.4362 43.3751 50.44C43.2781 50.7904 43.2453 51.1611 43.0923 51.4933C43.0169 51.7278 42.9338 51.9598 42.8615 52.1956C42.8774 52.2426 42.8857 52.2933 42.8743 52.3438C42.8464 52.5147 42.8241 52.6868 42.7957 52.858C42.7853 52.9344 42.7429 53.0101 42.7776 53.0871C42.4362 53.6211 42.0856 54.1489 41.7416 54.6813C41.7232 54.6823 41.6862 54.6845 41.6681 54.6855C41.6066 54.7934 41.543 54.8996 41.4799 55.0065C41.4313 55.0811 41.4282 55.1765 41.3728 55.2474C41.1452 55.5621 40.9207 55.8794 40.6948 56.1953C40.6321 56.2781 40.5834 56.378 40.4892 56.4302C40.2124 56.5992 39.9368 56.7706 39.6597 56.9393C39.7316 57.1333 39.5823 57.3552 39.7195 57.5336C39.4614 57.6339 39.239 57.8061 38.9924 57.9295C38.931 57.9525 38.8651 57.9626 38.8088 57.9973C38.5326 58.1567 38.2555 58.3148 37.9778 58.4718C37.8908 58.5118 37.8571 58.6073 37.8085 58.683C37.9752 58.7151 38.1409 58.7597 38.3121 58.7623C38.6208 58.7747 38.9287 58.8004 39.2374 58.8208C39.7144 58.8233 40.1917 58.8231 40.669 58.8212C40.9776 58.7924 41.2849 58.7451 41.5929 58.7079C42.2513 58.6388 42.8937 58.4679 43.5294 58.2881C43.7973 58.2114 44.0764 58.1656 44.3313 58.0485C44.654 57.9076 44.9912 57.7952 45.29 57.6052C45.8478 57.3147 46.3664 56.9558 46.8618 56.5699C47.2914 56.229 47.729 55.8908 48.0963 55.4819C48.2924 55.2416 48.5387 55.0495 48.7382 54.8127C48.7961 54.7151 48.862 54.6225 48.9444 54.5439C49.1258 54.3743 49.2549 54.1595 49.4324 53.9863C49.5365 53.8639 49.6762 53.7777 49.7777 53.653C49.9709 53.379 50.1713 53.1088 50.3307 52.8129C50.5999 52.4389 50.8694 52.061 51.0715 51.6451C51.2077 51.372 51.3492 51.1013 51.506 50.8391C51.6842 50.5425 51.8351 50.2307 51.9821 49.9176C52.1943 49.3973 52.426 48.885 52.6191 48.3571C52.852 47.7754 53.0308 47.1725 53.1568 46.5589C53.2294 46.2163 53.3233 45.8784 53.4369 45.5471C53.4887 45.332 53.5362 45.1153 53.5667 44.8957C53.6176 44.5419 53.6895 44.1912 53.7223 43.8348C53.7646 43.4021 53.9033 42.9833 53.9183 42.5474C53.9244 42.2232 53.9542 41.8996 53.9523 41.575C53.9877 41.5394 54.0277 41.5073 54.0545 41.4643C54.0688 41.3373 53.9797 41.191 53.8439 41.1868C53.4006 41.2295 52.9614 41.31 52.5355 41.4401L52.5355 41.4401ZM54.9327 41.336C54.9167 41.5696 54.8706 41.8006 54.8636 42.0355C54.8611 42.2169 54.822 42.395 54.8073 42.5758C54.7729 43.0865 54.7322 43.5981 54.652 44.1041C54.5236 44.7942 54.3859 45.4829 54.2594 46.1733C54.2305 46.4737 54.0799 46.7397 53.9925 47.0242C53.9018 47.287 53.8546 47.5623 53.7751 47.8286C53.6876 48.1526 53.5734 48.4685 53.4608 48.7848C53.3576 49.1342 53.2198 49.4747 53.0372 49.7906C52.9335 49.9538 52.8788 50.1409 52.7976 50.3153C52.6974 50.5358 52.6348 50.7745 52.5046 50.981C52.3913 51.1605 52.3194 51.3615 52.2115 51.5442C52.1291 51.6922 52.0241 51.8258 51.9398 51.9725C51.7588 52.2783 51.5509 52.5679 51.3848 52.8826C51.2569 53.1289 51.0645 53.3332 50.9347 53.5781C50.8068 53.8126 50.6193 54.0042 50.4593 54.2155C50.2639 54.465 50.0692 54.7157 49.8563 54.9509C49.6031 55.2057 49.3482 55.459 49.0942 55.7133C48.9756 55.8182 48.8864 55.9554 48.7497 56.0398C48.6606 56.0963 48.5871 56.1727 48.5186 56.252C48.3401 56.4483 48.1326 56.6164 47.9115 56.7617C47.74 56.873 47.6122 57.036 47.448 57.1569C47.2434 57.3228 47.0126 57.4507 46.7835 57.5785C46.803 57.5942 46.8421 57.6254 46.8616 57.641C47.0191 57.6291 47.1763 57.6017 47.3229 57.541C47.665 57.3998 48.0016 57.2451 48.3382 57.09C48.7876 56.8753 49.2527 56.6901 49.6768 56.4266C49.8971 56.271 50.1395 56.1501 50.3628 55.9987C50.7561 55.7629 51.1131 55.4744 51.4909 55.216C51.9745 54.8776 52.4695 54.5506 52.9061 54.1516C53.3048 53.7964 53.639 53.3777 54.0249 53.0099C54.2394 52.8094 54.4252 52.5822 54.6157 52.3598C54.8579 52.0893 55.0774 51.7997 55.296 51.5101C55.4679 51.2811 55.6785 51.0826 55.8309 50.8388C56.0962 50.436 56.369 50.0376 56.6315 49.6324C56.8813 49.1586 57.1288 48.6832 57.3655 48.2029C57.5898 47.7328 57.8284 47.2695 58.0156 46.7834C58.345 45.8869 58.5553 44.9533 58.8343 44.0414C58.8623 43.9628 58.7862 43.9027 58.7535 43.8399C58.5963 43.6169 58.533 43.3378 58.3465 43.1345C58.2259 42.9999 58.1199 42.851 57.9764 42.7393C57.8285 42.6228 57.7146 42.4663 57.5516 42.3693C57.4858 42.3295 57.4209 42.289 57.362 42.2401C57.1055 42.0301 56.8236 41.851 56.5265 41.704C56.0734 41.4898 55.6018 41.31 55.1121 41.2012C55.0272 41.1763 54.9304 41.2467 54.9327 41.3361L54.9327 41.336ZM12.237 51.7252C12.4915 52.2241 12.747 52.7223 13.0022 53.221C13.8613 52.7819 14.7182 52.3386 15.5776 51.9001C15.716 52.1665 15.8547 52.4328 15.9942 52.6989C15.3222 53.4998 14.6484 54.2993 13.9762 55.1003C14.2664 55.645 14.5563 56.1898 14.8454 56.7348C15.5772 55.877 16.3075 55.0182 17.0384 54.16C17.502 54.2526 17.966 54.3442 18.4296 54.4391C19.4038 53.9309 20.3758 53.4186 21.3502 52.9104C21.5261 52.3762 21.6998 51.841 21.8735 51.3061C21.235 50.101 20.5989 48.8948 19.9603 47.6897C17.3861 49.0354 14.8114 50.3804 12.237 51.7252H12.237ZM60.4217 48.2132C59.9244 49.1754 59.4251 50.1368 58.9275 51.099C59.1003 51.6319 59.2762 52.1636 59.4474 52.6972C60.3282 53.1507 61.211 53.6006 62.0909 54.0557C62.6375 53.8969 63.1823 53.732 63.728 53.5694C64.0536 52.9321 64.3774 52.2938 64.7023 51.6558C64.8649 51.6106 65.0271 51.5635 65.1894 51.5164C65.4213 51.631 65.6524 51.7478 65.8844 51.8633C65.9438 52.0255 66.0008 52.1887 66.0596 52.3514C65.8156 52.8035 65.5728 53.256 65.3288 53.7082C65.1083 53.592 64.8891 53.4743 64.6682 53.3607C64.3777 53.9051 64.0881 54.4505 63.7982 54.9952C64.2428 55.2225 64.6793 55.4706 65.1287 55.6862C65.6495 55.5318 66.1668 55.3644 66.6858 55.2043C67.1842 54.2418 67.683 53.2793 68.1816 52.3171C68.0312 51.7945 67.8804 51.2721 67.7288 50.7502C66.8475 50.2974 65.9664 49.844 65.0838 49.3937C64.5521 49.5582 64.0194 49.7198 63.4861 49.88C63.1384 50.5287 62.7894 51.1769 62.4441 51.827C62.2933 51.8807 62.1358 51.9142 61.9897 51.9791C61.7336 51.8368 61.478 51.6936 61.2229 51.5498C61.1768 51.399 61.1303 51.2488 61.0845 51.0986C61.3158 50.6461 61.5274 50.1835 61.78 49.7421C61.9895 49.8452 62.1982 49.9493 62.4062 50.0552C62.6962 49.5098 62.9866 48.965 63.2758 48.4194C62.8587 48.1986 62.4415 47.9777 62.0237 47.7588C61.4902 47.9121 60.9553 48.0602 60.4217 48.2132L60.4217 48.2132ZM55.8283 55.2746C54.7988 56.1459 53.7658 57.0139 52.7342 57.8833C54.625 60.1097 56.5153 62.3361 58.4051 64.5632C58.8235 64.1931 59.2403 63.8209 59.6584 63.4502C59.044 62.7196 58.4292 61.989 57.8145 61.2584C58.034 61.0605 58.2548 60.8638 58.4753 60.6665C59.4039 61.141 60.3313 61.6171 61.2591 62.0927C61.7346 61.6981 62.2109 61.3045 62.6856 60.9091C61.6757 60.377 60.6676 59.8418 59.6577 59.3091C59.6463 58.8341 59.6342 58.359 59.6234 57.8839C58.9282 57.0597 58.232 56.2363 57.5354 55.4131C56.9665 55.3653 56.3975 55.3169 55.8283 55.2747V55.2746ZM17.4208 60.2487C17.873 60.6779 18.3258 61.1066 18.7773 61.5362C19.196 61.2826 19.6129 61.0258 20.0306 60.7712C20.6565 61.3513 21.284 61.9301 21.9093 62.5112C21.6986 62.9391 21.4918 63.3687 21.2824 63.7977C21.7351 64.2145 22.1866 64.6329 22.6397 65.0495C23.9848 62.2893 25.3297 59.5293 26.6753 56.7696C26.2239 56.3521 25.7708 55.9362 25.3205 55.5174C22.6865 57.0932 20.0548 58.673 17.4208 60.2488L17.4208 60.2487ZM30.3985 59.3087C29.2841 61.9991 28.1717 64.6903 27.0578 67.3811C27.5691 67.5876 28.0778 67.7995 28.5895 68.0058C29.0063 66.9971 29.4241 65.9883 29.8413 64.9796C30.653 65.317 31.4657 65.6511 32.2763 65.9897C32.6668 65.7908 33.0559 65.5894 33.4458 65.3889C33.5087 65.3659 33.5196 65.2947 33.5449 65.2419C33.9325 64.2958 34.3232 63.3512 34.7121 62.4057C34.503 61.8842 34.2946 61.3621 34.0859 60.8405C32.8574 60.3279 31.6273 59.82 30.3985 59.3087L30.3985 59.3087ZM46.4367 60.8058C46.2165 61.3044 45.9957 61.8031 45.7759 62.302C46.5402 64.307 47.3073 66.311 48.0693 68.3166C48.5673 68.5416 49.0694 68.7576 49.568 68.9816C50.5773 68.601 51.5856 68.217 52.5942 67.8342C52.8037 67.336 53.011 66.8369 53.2215 66.3389C52.4686 64.3318 51.7135 62.3255 50.9601 60.319C50.4612 60.0972 49.9622 59.8754 49.4621 59.6574C48.4547 60.0431 47.4454 60.4236 46.4367 60.8058L46.4367 60.8058ZM38.0522 61.6408C38.0636 62.2785 38.075 62.9161 38.0869 63.5541C38.6087 63.5424 39.1304 63.5308 39.6526 63.5191C39.6761 65.8041 39.6975 68.0894 39.7233 70.3744C40.3374 70.3601 40.9518 70.3509 41.5659 70.3381C41.5427 68.0652 41.5194 65.792 41.4966 63.5191C42.0298 63.5108 42.5634 63.4966 43.0967 63.485C43.0853 62.8582 43.0735 62.2317 43.062 61.6052C41.3922 61.6205 39.7219 61.6296 38.0522 61.6408H38.0522ZM39.5477 11.8902C39.6638 11.7729 39.7812 11.6567 39.8977 11.5397C40.2799 11.5399 40.6619 11.5394 41.044 11.5399C41.1599 11.6555 41.275 11.7716 41.3915 11.8869C41.3928 13.3022 41.3913 14.7175 41.3925 16.1325C41.2766 16.249 41.1608 16.3655 41.044 16.4806C40.6607 16.4794 40.2773 16.4813 39.8938 16.4797C39.78 16.3629 39.6638 16.2483 39.5483 16.1332C39.5474 14.7187 39.5489 13.3044 39.5476 11.8902L39.5477 11.8902ZM28.3803 14.2889C28.8324 14.0817 29.2843 13.8737 29.7352 13.663C29.8991 13.7174 30.0606 13.7782 30.2236 13.8365C30.3716 14.1928 30.5258 14.5466 30.669 14.905C30.6493 15.066 30.5681 15.2167 30.5042 15.366C30.0524 15.5773 29.599 15.7861 29.1452 15.9938C28.8907 15.4251 28.6349 14.8572 28.3803 14.2889V14.2889ZM20.5166 19.6817C20.6901 19.6808 20.8638 19.682 21.0376 19.6808C22.048 20.6653 23.0557 21.653 24.0657 22.6381C24.0657 22.8128 24.066 22.9876 24.0654 23.1625C23.7867 23.44 23.5092 23.7184 23.2311 23.9962C23.0694 23.9962 22.9078 23.9952 22.7465 23.9971C21.7238 23.0129 20.7063 22.024 19.683 21.0408C19.6813 20.8768 19.6811 20.7131 19.6833 20.5491C19.9623 20.2615 20.2395 19.9716 20.5166 19.6818L20.5166 19.6817ZM65.1876 26.71C65.3395 26.7536 65.4899 26.8011 65.6411 26.8481C65.8161 27.2079 65.9905 27.5679 66.1642 27.9281C66.105 28.0785 66.048 28.2301 65.9896 28.3809C64.7129 28.9944 63.4382 29.6123 62.1607 30.2239C62.0116 30.1634 61.8611 30.1062 61.7105 30.0495C61.5485 29.7011 61.3854 29.3533 61.2233 29.0049C61.2813 28.8553 61.3392 28.7058 61.3959 28.5556C62.659 27.9392 63.9252 27.328 65.1876 26.71V26.71ZM17.3861 50.9253C17.9428 50.6358 18.4994 50.3452 19.0562 50.0557C19.2881 50.4967 19.521 50.9367 19.7517 51.3784C19.7043 51.5401 19.6589 51.7023 19.6124 51.8643C19.2637 52.0495 18.9159 52.2367 18.5668 52.4211C18.4008 52.3751 18.2382 52.3186 18.0816 52.2467C17.8497 51.8064 17.6183 51.3654 17.3861 50.9253H17.3861ZM55.2745 58.2311C55.6567 57.9062 56.04 57.5824 56.4219 57.2568C56.5731 57.2679 56.7243 57.2794 56.8757 57.2921C57.1299 57.6052 57.386 57.9171 57.6399 58.2308C57.6285 58.3813 57.6164 58.5321 57.6049 58.6833C57.2228 59.02 56.84 59.3564 56.4569 59.692C56.0633 59.2045 55.6688 58.718 55.2745 58.2311ZM21.5609 59.9004C22.339 59.439 23.1143 58.9729 23.8916 58.5102C23.4857 59.3099 23.0803 60.1098 22.6746 60.9094C22.303 60.5735 21.9319 60.2367 21.5609 59.9004ZM30.5024 63.448C30.7471 62.8574 30.9891 62.2659 31.2329 61.6753C31.651 61.8475 32.0678 62.0219 32.4849 62.1963C32.5435 62.347 32.6014 62.4985 32.6597 62.6497C32.4961 63.021 32.3351 63.3933 32.1709 63.7643C32.0201 63.8321 31.8715 63.9043 31.7206 63.9715C31.3147 63.7961 30.9077 63.624 30.5024 63.448H30.5024ZM48.072 62.2322C48.4444 62.094 48.8153 61.9537 49.1873 61.8147C49.3378 61.8714 49.488 61.9293 49.6381 61.9877C50.1361 63.3105 50.6357 64.6327 51.1339 65.9551C51.0649 66.1043 50.9946 66.253 50.9287 66.4037C50.5577 66.5482 50.1842 66.6851 49.8115 66.8244C49.6614 66.7658 49.5118 66.7061 49.3607 66.6514C48.8602 65.3292 48.3629 64.0064 47.8633 62.6843C47.9327 62.5332 48.0026 62.3827 48.072 62.2322V62.2322Z" fill="black"/>
<path fill-rule="evenodd" clip-rule="evenodd" d="M37.7037 10.8122C38.0855 10.4281 38.4696 10.0463 38.852 9.66248C39.9317 9.66349 41.0115 9.66123 42.0915 9.66383C42.4711 10.0459 42.8523 10.4266 43.2345 10.8064L43.25 17.2672C42.8628 17.6426 42.4762 18.0187 42.0889 18.3939C41.0101 18.3945 39.9306 18.3939 38.8517 18.3943C38.4699 18.0112 38.0868 17.6286 37.7043 17.2462C37.7037 15.1015 37.705 12.9568 37.7037 10.8122L37.7037 10.8122ZM39.5477 11.8905C39.5489 13.3046 39.5473 14.7191 39.5482 16.1335C39.6638 16.2486 39.7799 16.3631 39.8938 16.4799C40.2772 16.4815 40.6607 16.4796 41.044 16.4809C41.1608 16.3657 41.2766 16.2493 41.3925 16.1328C41.3911 14.7177 41.3927 13.3024 41.3915 11.8871C41.275 11.7719 41.1599 11.6557 41.044 11.5402C40.6619 11.5396 40.2797 11.5402 39.8976 11.5399C39.7812 11.657 39.6638 11.7731 39.5475 11.8906L39.5477 11.8905ZM46.4721 19.159C47.6087 16.4804 48.7447 13.8015 49.8817 11.1229C50.5081 11.3892 51.1345 11.6553 51.7601 11.9231C51.7667 12.8927 51.7734 13.8626 51.7801 14.8321C51.7814 15.5296 51.7983 16.2277 51.7871 16.9247C51.8874 16.7468 51.9484 16.5491 52.0331 16.3633C52.5457 15.1386 53.0567 13.9132 53.5699 12.6885C54.0918 12.9086 54.6138 13.1282 55.1351 13.35C54.0097 16.0286 52.8848 18.7075 51.7604 21.3868C51.285 21.1885 50.81 20.9909 50.3336 20.7955C50.2175 18.8934 50.1024 16.9915 49.9852 15.0896C49.325 16.6554 48.6635 18.2207 48.0026 19.7865C47.4933 19.5753 46.9818 19.3691 46.4721 19.159L46.4721 19.159ZM26.084 13.1756C27.337 12.6322 28.5893 12.0868 29.8413 11.5407C30.3753 11.7597 30.9082 11.9805 31.4413 12.201C31.8596 13.1976 32.2752 14.1955 32.6942 15.1917C32.5676 15.6449 32.439 16.0974 32.3118 16.5502C33.1231 17.3389 33.9355 18.1275 34.7469 18.9163C34.1798 19.1734 33.6109 19.4264 33.0436 19.6825C32.2889 18.9515 31.5351 18.2204 30.7807 17.4898C30.5144 17.6187 30.2477 17.7466 29.9804 17.8726C30.3629 18.7543 30.7466 19.6358 31.1285 20.5178C30.6066 20.7376 30.0855 20.9592 29.563 21.1781C28.4031 18.5105 27.2434 15.8431 26.0838 13.1756L26.084 13.1756ZM28.3804 14.289C28.6349 14.8574 28.8907 15.4254 29.1453 15.9939C29.599 15.7862 30.0525 15.5775 30.5043 15.3661C30.5682 15.2168 30.6494 15.0661 30.6691 14.9051C30.5259 14.5467 30.3716 14.1929 30.2237 13.8366C30.0607 13.7784 29.8991 13.7175 29.7352 13.6631C29.2843 13.8738 28.8325 14.0819 28.3804 14.289V14.289ZM58.4062 17.6641C58.8462 17.2113 59.2875 16.7598 59.7279 16.3074C60.9226 17.4897 62.1172 18.6729 63.3114 19.8563C62.8706 20.2966 62.4303 20.738 61.9893 21.1781C61.6071 20.8064 61.224 20.4357 60.8412 20.0647C59.2404 21.6881 57.6408 23.3126 56.0398 24.9354C55.6109 24.5175 55.1823 24.1001 54.7527 23.6832C56.3529 22.0477 57.9536 20.4127 59.5539 18.7775C59.1717 18.4063 58.7889 18.0351 58.4062 17.6641ZM19.8577 17.6285C20.413 17.618 20.9685 17.6069 21.5241 17.5936C23.0278 19.0696 24.5264 20.5512 26.0299 22.0276C26.0513 22.0534 26.0888 22.0763 26.0837 22.1157C26.0971 22.6494 26.1063 23.1833 26.1186 23.7173C25.3656 24.4956 24.6104 25.2724 23.8563 26.05C23.3122 26.0497 22.7679 26.0497 22.2238 26.05C20.6923 24.5649 19.1616 23.08 17.6297 21.5956C17.6173 21.0504 17.6062 20.5054 17.5948 19.9603C18.3495 19.1836 19.103 18.4052 19.8577 17.6285L19.8577 17.6285ZM20.5167 19.6818C20.2395 19.9717 19.9624 20.2617 19.6833 20.5492C19.6811 20.7131 19.6814 20.8771 19.6831 21.0409C20.7063 22.0241 21.7239 23.0131 22.7465 23.9973C22.9079 23.9953 23.0695 23.9964 23.2312 23.9964C23.5092 23.7185 23.7867 23.4401 24.0654 23.1626C24.0661 22.9876 24.0658 22.813 24.0658 22.6383C23.0558 21.6531 22.0482 20.6654 21.0375 19.6809C20.8638 19.6821 20.6901 19.6809 20.5167 19.6819L20.5167 19.6818ZM59.6235 27.3357C61.5492 26.4209 63.4742 25.5045 65.399 24.5874C65.9068 24.7614 66.4174 24.9295 66.9231 25.1096C67.3994 26.0778 67.8537 27.0589 68.3212 28.0323C68.1477 28.5538 67.9718 29.0746 67.8006 29.5968C65.8641 30.5141 63.9269 31.4303 61.9895 32.346C61.4795 32.1586 60.9685 31.9744 60.4578 31.7885C59.9938 30.8263 59.5302 29.8638 59.0664 28.9013C59.2525 28.3796 59.4374 27.8572 59.6235 27.3357ZM65.1876 26.7101C63.9251 27.328 62.659 27.9393 61.3959 28.5557C61.3392 28.7059 61.2813 28.8554 61.2233 29.005C61.3853 29.3534 61.5485 29.7012 61.7105 30.0496C61.861 30.1063 62.0115 30.1635 62.1607 30.224C63.4383 29.6124 64.7129 28.9945 65.9894 28.381C66.048 28.2301 66.105 28.0787 66.1641 27.9282C65.9905 27.568 65.8161 27.2081 65.6411 26.8482C65.49 26.801 65.3395 26.7537 65.1876 26.7101V26.7101ZM13.7325 25.3877C14.3014 25.6413 14.8697 25.8965 15.437 26.1532C15.2169 26.6398 14.9976 27.1269 14.7762 27.6132C16.8638 28.541 18.9514 29.4689 21.0391 30.3971C20.7957 30.9539 20.5519 31.5108 20.3082 32.0676C18.2212 31.1384 16.1336 30.211 14.0457 29.2844C13.8255 29.7712 13.605 30.2583 13.3847 30.7455C12.8057 30.4773 12.225 30.2119 11.6455 29.9445C12.3411 28.4255 13.037 26.9068 13.7325 25.3877H13.7325ZM12.2371 51.7251C14.8115 50.3803 17.3864 49.0352 19.9604 47.6896C20.5991 48.8947 21.2351 50.1009 21.8738 51.306C21.7 51.8409 21.5263 52.3761 21.3504 52.9104C20.376 53.4184 19.404 53.9308 18.4296 54.439C17.9661 54.3441 17.5022 54.2525 17.0386 54.1599C16.3076 55.0181 15.5774 55.8769 14.8456 56.7347C14.5563 56.1897 14.2665 55.645 13.9764 55.1002C14.6486 54.2992 15.3223 53.4996 15.9943 52.6987C15.8549 52.4327 15.7161 52.1664 15.5777 51.9C14.7184 52.3385 13.8615 52.7818 13.0023 53.2209C12.7471 52.7222 12.4917 52.224 12.2371 51.7251H12.2371ZM17.386 50.9254C17.6183 51.3655 17.8496 51.8065 18.0815 52.2469C18.238 52.3187 18.4006 52.3752 18.5668 52.4213C18.9158 52.2366 19.2636 52.0496 19.6124 51.8644C19.6588 51.7024 19.7043 51.5402 19.7517 51.3785C19.521 50.9368 19.2881 50.4968 19.0561 50.0558C18.4994 50.3453 17.9428 50.6359 17.386 50.9254L17.386 50.9254ZM60.4218 48.213C60.9554 48.06 61.4903 47.912 62.0239 47.7587C62.4417 47.9776 62.8588 48.1984 63.276 48.4193C62.9867 48.9649 62.6962 49.5097 62.4064 50.0551C62.1984 49.9491 61.9895 49.8451 61.7802 49.742C61.5276 50.1833 61.3159 50.6461 61.0847 51.0985C61.1305 51.2487 61.177 51.3988 61.2231 51.5497C61.4783 51.6935 61.7337 51.8367 61.9899 51.9789C62.136 51.914 62.2935 51.8807 62.4443 51.8268C62.7895 51.1767 63.1386 50.5286 63.4863 49.8798C64.0197 49.7197 64.5523 49.5581 65.0839 49.3936C65.9666 49.8439 66.8477 50.2973 67.729 50.7501C67.8805 51.272 68.0313 51.7944 68.1818 52.3169C67.6832 53.2791 67.1843 54.2417 66.686 55.2042C66.1671 55.3643 65.6497 55.5317 65.1288 55.686C64.6795 55.4705 64.243 55.2224 63.7985 54.9951C64.0883 54.4504 64.3779 53.905 64.6684 53.3605C64.8892 53.4742 65.1085 53.5919 65.329 53.708C65.573 53.2559 65.8158 52.8034 66.0598 52.3512C66.001 52.1886 65.944 52.0254 65.8845 51.8631C65.6525 51.7476 65.4216 51.6309 65.1896 51.5163C65.0273 51.5634 64.865 51.6105 64.7024 51.6556C64.3776 52.2936 64.0536 52.932 63.7282 53.5693C63.1825 53.7319 62.6377 53.8968 62.0911 54.0555C61.2113 53.6005 60.3283 53.1506 59.4476 52.6971C59.2764 52.1635 59.1004 51.6318 58.9277 51.0988C59.4253 50.1365 59.9245 49.1753 60.4218 48.213L60.4218 48.213ZM55.8285 55.2745C56.3977 55.3168 56.9667 55.3652 57.5356 55.4129C58.2321 56.2362 58.9282 57.0596 59.6235 57.8837C59.6344 58.3589 59.6465 58.8339 59.6579 59.309C60.6678 59.8417 61.6759 60.3769 62.6857 60.9089C62.211 61.3044 61.7347 61.698 61.2593 62.0926C60.3315 61.6169 59.4039 61.1409 58.4755 60.6664C58.255 60.8637 58.0341 61.0604 57.8147 61.2582C58.4293 61.9889 59.0441 62.7195 59.6586 63.4501C59.2404 63.8207 58.8236 64.193 58.4051 64.5631C56.5155 62.336 54.6251 60.1096 52.7344 57.8832C53.766 57.0138 54.7988 56.1458 55.8285 55.2745L55.8285 55.2745ZM55.2745 58.2312C55.6688 58.7181 56.0633 59.2046 56.457 59.6921C56.8401 59.3564 57.2228 59.0201 57.6049 58.6834C57.6164 58.5322 57.6285 58.3814 57.64 58.2309C57.386 57.9172 57.1299 57.6053 56.8757 57.2922C56.7242 57.2795 56.5731 57.268 56.4219 57.2569C56.0401 57.5825 55.6567 57.9063 55.2745 58.2312ZM17.421 60.2487C20.055 58.6729 22.6867 57.0931 25.3207 55.5173C25.771 55.936 26.2241 56.352 26.6756 56.7694C25.33 59.5291 23.9849 62.2892 22.6399 65.0494C22.1868 64.6328 21.7353 64.2144 21.2825 63.7974C21.492 63.3685 21.6988 62.9389 21.9094 62.511C21.2841 61.9299 20.6567 61.3512 20.0308 60.7711C19.6131 61.0256 19.1962 61.2824 18.7775 61.5361C18.3259 61.1065 17.8732 60.6779 17.421 60.2487L17.421 60.2487ZM21.5609 59.9005C21.932 60.2368 22.3029 60.5736 22.6746 60.9095C23.0803 60.1099 23.4857 59.3099 23.8916 58.5103C23.1144 58.973 22.3389 59.4391 21.5609 59.9005ZM30.3987 59.3086C31.6274 59.82 32.8576 60.3278 34.0861 60.8405C34.2948 61.3621 34.5032 61.8841 34.7123 62.4057C34.3235 63.351 33.9327 64.2958 33.5452 65.2418C33.5197 65.2946 33.5089 65.3659 33.4459 65.3888C33.0562 65.5893 32.667 65.7907 32.2765 65.9896C31.4659 65.6511 30.6532 65.3169 29.8414 64.9796C29.4243 65.9883 29.0066 66.9971 28.5897 68.0057C28.078 67.7995 27.5693 67.5876 27.058 67.3811C28.172 64.6903 29.2843 61.999 30.3987 59.3086L30.3987 59.3086ZM30.5023 63.4482C30.9077 63.6241 31.3147 63.7962 31.7206 63.9716C31.8715 63.9044 32.02 63.8322 32.1709 63.7644C32.3351 63.3934 32.4961 63.0211 32.6596 62.6498C32.6014 62.4986 32.5435 62.3472 32.4849 62.1964C32.0678 62.022 31.651 61.8476 31.2329 61.6754C30.9891 62.266 30.747 62.8575 30.5023 63.4482ZM46.4368 60.8058C47.4455 60.4236 48.4548 60.0431 49.4622 59.6574C49.9623 59.8754 50.4613 60.0972 50.9602 60.3189C51.7136 62.3255 52.4687 64.3318 53.2216 66.3389C53.0113 66.8369 52.8038 67.3359 52.5944 67.8342C51.5857 68.217 50.5774 68.6011 49.5681 68.9816C49.0696 68.7576 48.5674 68.5415 48.0694 68.3166C47.3074 66.311 46.5403 64.307 45.7759 62.302C45.9958 61.8031 46.2167 61.3044 46.4368 60.8058L46.4368 60.8058ZM48.072 62.2323C48.0027 62.3828 47.9326 62.5333 47.8633 62.6844C48.3629 64.0065 48.8602 65.3294 49.3606 66.6515C49.5118 66.7062 49.6613 66.766 49.8116 66.8245C50.1842 66.6852 50.5577 66.5484 50.9287 66.4038C50.9946 66.2531 51.0649 66.1045 51.1339 65.9553C50.6357 64.6328 50.1361 63.3107 49.6381 61.988C49.488 61.9294 49.3378 61.8715 49.1873 61.8148C48.8153 61.9538 48.4443 62.0941 48.072 62.2323ZM38.0523 61.6408C39.7222 61.6296 41.3923 61.6203 43.0621 61.6051C43.0736 62.2316 43.0854 62.8582 43.0968 63.485C42.5635 63.4964 42.0299 63.5108 41.4967 63.5191C41.5196 65.792 41.5428 68.0652 41.566 70.3381C40.9519 70.3508 40.3375 70.36 39.7234 70.3744C39.6976 68.0894 39.6763 65.8041 39.6528 63.5191C39.1306 63.5308 38.6087 63.5424 38.087 63.5541C38.0752 62.9161 38.0637 62.2785 38.0523 61.6408H38.0523Z" fill="white"/>
<path fill-rule="evenodd" clip-rule="evenodd" d="M37.9321 21.348C38.4183 21.2882 38.907 21.2431 39.3973 21.2469C39.5145 21.2472 39.6287 21.2771 39.7455 21.2857C39.9561 21.3061 40.1709 21.2962 40.3784 21.3449C40.5377 21.3757 40.6952 21.4285 40.8597 21.4213C41.0567 21.4113 41.246 21.475 41.4382 21.5071C41.7271 21.5715 42.0274 21.6036 42.2998 21.7267C42.7166 21.8867 43.1303 22.056 43.557 22.1891C43.8351 22.2654 44.075 22.4303 44.3289 22.561C44.8084 22.814 45.2625 23.1115 45.7321 23.3823C45.8635 23.4532 46.0067 23.5051 46.1261 23.5977C46.3539 23.7746 46.5827 23.9507 46.812 24.1259C47.024 24.2819 47.2028 24.4759 47.3982 24.6513C47.6355 24.8792 47.8837 25.0965 48.1147 25.3309C48.5157 25.7977 48.9706 26.215 49.3658 26.6865C49.7213 27.1807 50.0766 27.6748 50.4337 28.1678C50.6765 28.4881 50.8661 28.8439 51.0694 29.1894C51.1217 29.2636 51.1296 29.3887 51.0515 29.4466C50.8687 29.4761 50.6809 29.4434 50.4976 29.4736C49.7715 29.5547 49.0451 29.422 48.339 29.2629C47.9541 29.1868 47.5973 29.0192 47.2291 28.8907C47.1653 28.8754 47.1331 28.8161 47.0993 28.7668C47.0074 28.6253 46.9132 28.4853 46.8194 28.3453C46.5117 28.2721 46.2037 28.2018 45.8953 28.132C45.7942 27.9981 45.679 27.8753 45.5616 27.7562C45.3764 27.6238 45.2513 27.4279 45.084 27.2765C44.9449 27.2544 44.8021 27.2735 44.6618 27.2668C44.593 27.1501 44.523 27.0342 44.4534 26.9184C44.0594 26.7911 43.6661 26.6623 43.2722 26.536C43.0088 26.64 42.744 26.7409 42.4809 26.8462C42.4812 26.7648 42.4 26.7463 42.3425 26.717C41.8916 26.5092 41.4493 26.2834 40.994 26.0861C40.8273 25.9893 40.665 25.8856 40.4999 25.7866C40.4066 25.7268 40.3017 25.6819 40.2272 25.5976C39.6624 25.561 39.0973 25.5282 38.5325 25.4961C38.2443 25.5674 37.9445 25.4551 37.6562 25.5146C37.5076 25.3647 37.3587 25.2158 37.2095 25.0669C36.9915 24.9039 36.7631 24.748 36.5728 24.5524C36.1136 24.5269 35.6545 24.5078 35.1956 24.4845C34.8718 24.4566 34.5494 24.4161 34.2261 24.3852C33.8491 24.3589 33.4717 24.3356 33.094 24.3219C32.9693 24.3137 32.8398 24.3264 32.7214 24.279C32.3736 24.427 32.0198 24.5664 31.6504 24.6487C31.3542 24.756 31.0592 24.8664 30.763 24.9736C30.4263 25.0951 30.1078 25.2737 29.7519 25.3344C29.5282 25.3879 29.3337 25.5219 29.1135 25.5858C28.873 25.6339 28.6643 25.7806 28.4214 25.8201C28.2449 25.8712 28.0784 25.9571 27.8939 25.9794C28.1106 25.7182 28.3966 25.5305 28.6547 25.3144C28.9639 25.0557 29.3165 24.8562 29.6319 24.6057C29.7766 24.5059 29.9036 24.3754 30.0699 24.3101C30.2774 24.2166 30.46 24.0738 30.673 23.991C31.0287 23.8328 31.3555 23.6193 31.6813 23.4087C31.9422 23.2655 32.1929 23.1008 32.472 22.9941C33.0819 22.7475 33.7132 22.5359 34.2742 22.1856C34.397 22.119 34.5396 22.1079 34.6719 22.0685C34.7897 22.0398 34.8813 21.9539 34.9955 21.9155C35.2109 21.8348 35.4277 21.7569 35.6449 21.6813C35.9539 21.6389 36.2632 21.5832 36.5607 21.4864C37.0062 21.3611 37.4726 21.3478 37.9321 21.348V21.348ZM43.7193 21.6369C43.7428 21.6106 43.7673 21.5845 43.7921 21.5587C43.9894 21.5625 44.1801 21.6195 44.3734 21.6516C44.6965 21.7029 45.0066 21.8081 45.3229 21.8887C45.6313 21.9864 45.9339 22.1025 46.2393 22.2091C46.8913 22.4331 47.5433 22.6635 48.1656 22.9613C48.4466 23.0905 48.7275 23.2187 49.0085 23.348C49.4658 23.5366 49.8689 23.8278 50.2969 24.0716C50.595 24.2507 50.8931 24.4296 51.1915 24.6083C51.309 24.6803 51.4343 24.7426 51.5343 24.84C51.9705 25.2574 52.4519 25.6231 52.9193 26.004C53.1351 26.1812 53.3712 26.3327 53.5799 26.5188C53.6331 26.5624 53.6706 26.6209 53.7055 26.6802C53.8236 26.879 53.9825 27.0521 54.0865 27.2593C54.139 27.44 53.9951 27.5896 53.9204 27.7397C53.7946 27.9908 53.5894 28.1868 53.4061 28.3953C53.2379 28.5912 53.031 28.7494 52.8144 28.8872C52.6553 28.9526 52.5187 29.0647 52.3501 29.1068C52.2757 29.1271 52.1984 29.2143 52.1219 29.1538C51.9766 29.0851 51.9104 28.9321 51.843 28.7968C51.7242 28.5371 51.5492 28.309 51.3694 28.0897C51.1655 27.8222 50.9721 27.545 50.8152 27.2472C50.7672 27.1224 50.6612 27.0377 50.5772 26.9388C50.3478 26.6693 50.1425 26.3792 49.8924 26.1278C49.6964 25.9305 49.5303 25.7071 49.3483 25.4981C49.032 25.135 48.6512 24.8339 48.3511 24.4566C48.0851 24.1673 47.7443 23.9633 47.4538 23.703C47.2286 23.536 46.9972 23.3757 46.7895 23.1869C46.491 22.9279 46.1343 22.7545 45.7932 22.5617C45.5934 22.4407 45.3729 22.3549 45.1871 22.2126C45.0868 22.1572 44.9703 22.143 44.8686 22.0917C44.5848 21.9622 44.2917 21.855 43.9968 21.7541C43.9006 21.7236 43.8014 21.6968 43.7193 21.6369L43.7193 21.6369ZM54.2186 28.7023C54.4378 28.4365 54.6064 28.1337 54.7964 27.8466C54.8953 27.9794 55.0292 28.0815 55.1244 28.2174C55.4963 28.7372 55.8718 29.2547 56.2438 29.7746C56.3137 29.8822 56.4207 29.962 56.4779 30.0788C56.6752 30.4221 56.8324 30.79 57.0759 31.105C57.2162 31.2743 57.2648 31.4916 57.346 31.6911C57.4881 32.0605 57.6543 32.4205 57.8223 32.779C57.9312 33.0202 58.0552 33.2554 58.1382 33.5074C58.229 33.7416 58.2836 33.9882 58.3759 34.222C58.4069 34.2994 58.4218 34.3822 58.4422 34.4632C58.4781 34.6046 58.55 34.7344 58.5808 34.8772C58.562 34.9049 58.5427 34.932 58.5223 34.9588C58.172 34.8579 57.8407 34.7 57.486 34.6141C57.0984 34.5453 56.7116 34.4729 56.3246 34.4016C55.9854 34.3688 55.6456 34.3195 55.3044 34.3338C54.9125 34.3538 54.5201 34.3675 54.1278 34.3666C54.0444 34.343 54.0308 34.2415 54.0057 34.1718C53.9443 33.9306 53.8943 33.6866 53.8048 33.4537C53.7247 33.1062 53.5913 32.7746 53.4826 32.4357C53.4186 32.2317 53.3215 32.0405 53.2563 31.8372C53.046 31.225 52.6715 30.6859 52.4612 30.0737C52.4348 29.9999 52.4828 29.9185 52.5544 29.8939C52.6778 29.8418 52.8067 29.7985 52.919 29.7227C53.1163 29.5923 53.3301 29.4854 53.5119 29.3324C53.7654 29.1436 53.9932 28.9235 54.2185 28.7023L54.2186 28.7023ZM39.9049 28.2864C40.5849 28.252 41.2643 28.2053 41.9439 28.1757C42.194 28.2492 42.4294 28.3676 42.6788 28.4439C42.9226 28.4391 43.1654 28.3958 43.4094 28.3857C43.5485 28.4318 43.6802 28.5021 43.8206 28.5486C43.9816 28.4916 44.1489 28.5788 44.3124 28.5877C44.3138 28.6062 44.3163 28.6431 44.3175 28.6616C44.4782 28.7844 44.5982 28.9702 44.7977 29.0329C44.9857 29.1649 45.1618 29.3142 45.3484 29.4485C45.4344 29.415 45.5263 29.437 45.6154 29.445C45.8659 29.4701 46.1166 29.4927 46.3674 29.5191C46.4186 29.5267 46.4711 29.5204 46.5204 29.5019C46.8214 29.5974 47.1176 29.7088 47.4167 29.8113C48.0776 30.0699 48.7906 30.1342 49.4859 30.2488C49.8295 30.3172 50.1821 30.293 50.5301 30.2816C50.8808 30.2675 51.2302 30.2268 51.5808 30.2131C51.6808 30.2525 51.7078 30.3817 51.7661 30.4661C52.125 31.0547 52.3677 31.7046 52.5749 32.3596C52.8208 32.9493 53.0285 33.5551 53.1873 34.1743C53.1997 34.2574 53.2723 34.345 53.2319 34.4276C52.4928 34.5053 51.7533 34.5836 51.0122 34.6444C50.6282 34.6809 50.2447 34.7262 49.8616 34.7709C49.8076 34.7776 49.7557 34.7942 49.7051 34.8114C49.5696 34.7111 49.4076 34.7774 49.2561 34.7761C49.0758 34.7251 48.9055 34.6427 48.7274 34.5848C48.4817 34.5132 48.2154 34.5225 47.9815 34.4115C47.9089 34.3943 47.8354 34.4397 47.7623 34.4238C47.5062 34.3655 47.255 34.2841 46.998 34.2301C46.8978 34.2403 46.801 34.2695 46.7033 34.2915C46.5926 34.4136 46.4109 34.4213 46.292 34.5343C46.1713 34.4662 46.0539 34.393 45.9333 34.3255C45.8538 34.2775 45.7538 34.3102 45.6737 34.2645C45.547 34.1989 45.4016 34.1626 45.2963 34.0617C44.7417 34.2459 44.2007 34.4706 43.6541 34.6774C43.6452 34.6949 43.6271 34.7297 43.6182 34.7471C43.4642 34.8072 43.3038 34.8509 43.1533 34.9186C43.0108 34.9998 42.8656 35.0765 42.7164 35.1442C42.6267 35.1693 42.5357 35.1903 42.4536 35.2349C42.3699 35.2788 42.2697 35.2995 42.208 35.3759C42.1596 35.3851 42.1115 35.394 42.0642 35.4029C42.0165 35.3772 41.963 35.367 41.9102 35.3679C41.6223 35.3607 41.3345 35.3466 41.0469 35.3393C40.9976 35.3663 40.9524 35.4103 40.8929 35.4087C40.5423 35.4208 40.191 35.4294 39.84 35.4396C39.7955 35.4386 39.7538 35.4533 39.7137 35.4691C39.5117 35.3132 39.3268 35.1344 39.1165 34.9902C38.8606 35.0325 38.6086 35.0975 38.3496 35.1198C38.2023 35.1414 38.0495 35.143 37.9086 35.1949C37.7285 35.1191 37.5517 35.0367 37.3722 34.96C37.3149 34.9367 37.2662 34.8992 37.22 34.86C37.1965 34.904 37.1574 34.9304 37.1077 34.9298C36.7339 34.9689 36.361 35.0147 35.9874 35.053C35.9318 35.0514 35.8935 35.0937 35.8567 35.1286C35.4634 35.5095 35.0634 35.8834 34.6803 36.2748C34.4713 36.4793 34.2701 36.6926 34.0573 36.8928C33.923 36.9398 33.7763 36.9465 33.6373 36.9784C33.4072 37.0372 33.1727 36.9682 32.9411 36.9586C32.8303 36.9567 32.7247 36.9236 32.6172 36.9052C32.0441 36.9042 31.471 36.9042 30.8983 36.9052C30.8443 36.8994 30.802 36.9357 30.7593 36.9621C30.3806 37.2141 29.9972 37.4588 29.6058 37.6908C29.4971 37.7497 29.4324 37.8588 29.3526 37.9492C29.168 37.9504 28.9831 37.9434 28.7986 37.9507C28.5613 38.0121 28.3146 38.0153 28.0722 38.0449C27.7931 38.072 27.5144 38.1035 27.2348 38.1251C27.1886 38.2737 27.0604 38.3705 26.9664 38.4875C26.8643 38.5938 26.7794 38.7182 26.6677 38.814C26.3823 38.8398 26.0941 38.8287 25.8089 38.8576C25.5057 38.9712 25.213 39.1125 24.9129 39.2344C24.8101 39.2706 24.7443 39.3607 24.6701 39.4348C23.7837 40.341 22.8975 41.2476 22.011 42.1538C21.9143 42.2509 21.8221 42.3534 21.7179 42.4434C21.6881 42.2464 21.6903 42.0466 21.6776 41.8484C21.669 41.744 21.6839 41.6326 21.6333 41.5372C21.5795 41.4474 21.5996 41.3414 21.6009 41.2428C21.6168 40.7127 21.6305 40.1823 21.6458 39.6518C21.66 39.3457 21.6467 39.0374 21.6919 38.7335C21.7476 38.276 21.8026 37.8187 21.8596 37.3615C21.8822 37.1647 21.9442 36.9758 21.9805 36.7817C22.048 36.39 22.102 35.996 22.1752 35.6056C22.2147 35.4345 22.2287 35.2556 22.2994 35.093C22.398 34.8455 22.5332 34.6043 22.5341 34.3303C23.0945 33.9319 23.6424 33.517 24.1922 33.1043C24.7176 32.7011 25.2744 32.3419 25.8127 31.9568C26.0686 31.7564 26.3193 31.5499 26.5754 31.3501C26.6203 31.3157 26.6582 31.2734 26.6916 31.2276C26.83 31.1571 26.9764 31.1022 27.1129 31.0277C27.1854 30.9698 27.2364 30.8896 27.2974 30.8205C27.4139 30.8651 27.5386 30.8766 27.6611 30.8954C27.9124 30.9319 28.1629 30.9745 28.4139 31.0138C28.4953 31.0293 28.5749 30.9984 28.6535 30.9806C28.9577 30.9064 29.2619 30.8329 29.5667 30.761C29.6876 30.72 29.8016 30.838 29.9228 30.7897C30.1305 30.8854 30.3326 30.9936 30.5387 31.0933C30.7087 30.9507 30.8865 30.817 31.053 30.6703C31.144 30.5484 31.2754 30.4696 31.3909 30.3744C31.8246 30.0343 32.2592 29.6957 32.6922 29.3552C32.7419 29.3782 32.7903 29.4068 32.844 29.4211C33.2542 29.4755 33.6684 29.4555 34.0812 29.459C34.4942 29.4624 34.9084 29.4434 35.3199 29.4905C35.4913 29.5147 35.6721 29.4934 35.8369 29.555C35.8881 29.4946 35.9272 29.4189 36.0007 29.3813C36.5534 29.0657 37.1023 28.7424 37.6541 28.4246C37.7537 28.4614 37.8602 28.4388 37.9637 28.435C38.2822 28.4162 38.6007 28.3985 38.9195 28.3802C38.9322 28.3564 38.9455 28.3329 38.9596 28.3093C39.1066 28.3036 39.253 28.2816 39.4006 28.2827C39.5661 28.3269 39.7366 28.2899 39.9049 28.2864L39.9049 28.2864ZM54.3764 35.3256C54.4029 35.2279 54.5037 35.1677 54.602 35.1688C55.128 35.1547 55.6546 35.17 56.1796 35.2063C56.5764 35.2747 56.983 35.2798 57.3754 35.3765C57.5654 35.4249 57.7499 35.4945 57.943 35.5328C58.0461 35.5509 58.1386 35.6031 58.2376 35.6371C58.3474 35.6775 58.4698 35.6852 58.5708 35.7501C58.7143 35.8331 58.8841 35.927 58.9189 36.1052C58.9917 36.4953 59.0496 36.8882 59.1132 37.28C59.1581 37.5829 59.2154 37.8843 59.2316 38.1907C59.2583 38.6037 59.3201 39.0152 59.3099 39.4297C59.3071 39.929 59.3232 40.4289 59.2778 40.9272C59.2565 41.493 59.1776 42.0539 59.1123 42.6162C59.0948 42.7104 59.1218 42.8167 59.0643 42.9007C58.848 42.7476 58.7894 42.4581 58.5708 42.3069C58.2205 41.8484 57.7515 41.5025 57.2786 41.1807C56.7924 40.8794 56.2473 40.6968 55.7052 40.5257C55.5245 40.4582 55.3364 40.4155 55.1464 40.3859C55.0621 40.377 54.9933 40.3239 54.9244 40.281C54.8751 40.0954 54.8956 39.9029 54.8896 39.7139C54.8833 39.3846 54.8595 39.0555 54.856 38.7262C54.8102 37.9425 54.7102 37.1619 54.5648 36.3906C54.5072 36.0345 54.3841 35.6887 54.3764 35.3256V35.3256ZM52.6368 35.346C52.7836 35.3265 52.9494 35.3596 53.0795 35.2728C53.2067 35.2721 53.3995 35.2381 53.4521 35.3943C53.5597 35.7126 53.5943 36.0495 53.6472 36.3798C53.7168 36.6703 53.7636 36.9656 53.7963 37.2628C53.8365 37.6243 53.9303 37.982 53.9166 38.3482C53.9135 38.6358 53.9568 38.921 53.9857 39.206C53.972 39.5408 54.0405 39.8695 54.0815 40.1998C54.0948 40.3296 53.9621 40.4245 53.8422 40.4162C53.4842 40.4149 53.1352 40.5036 52.7854 40.5683C52.4174 40.6589 52.0467 40.7515 51.6992 40.9071C51.249 41.0462 50.8311 41.269 50.4026 41.4614C50.2566 41.4246 50.1054 41.4201 49.9584 41.3914C49.7825 41.3093 49.5813 41.323 49.394 41.2881C49.2985 41.4048 49.1607 41.4758 49.0661 41.5928C49.0003 41.6642 48.9424 41.7437 48.8676 41.8064C48.5994 41.8936 48.3115 41.9161 48.0517 42.0301C47.8905 42.081 47.7221 42.1064 47.5611 42.1577C47.5151 42.2099 47.4946 42.2802 47.4638 42.3422C47.3944 42.5074 47.276 42.6646 47.3057 42.8539C46.9124 43.0283 46.5086 43.1794 46.1211 43.3662C45.8261 43.2991 45.5196 43.3042 45.2197 43.271C45.0329 43.4056 44.8557 43.5533 44.6647 43.6819C44.4168 43.7308 44.1444 43.6647 43.9148 43.7917C43.7821 43.8511 43.6487 43.9087 43.515 43.9657C43.4598 44.1464 43.4094 44.3288 43.3544 44.5098C43.3468 44.5537 43.3031 44.5732 43.2739 44.6011C43.2717 44.6314 43.2701 44.6623 43.2694 44.6937C43.2005 44.696 43.1291 44.6921 43.0674 44.7268C42.6401 44.9242 42.2115 45.1192 41.7839 45.3159C41.6486 45.3813 41.5009 45.4275 41.3861 45.5283C41.1373 45.6855 40.8544 45.7759 40.5954 45.9141C40.5776 45.9064 40.5416 45.8911 40.5239 45.8835C40.4886 45.9277 40.4614 45.9837 40.4071 46.0079C40.2734 46.0791 40.1341 46.1393 40.001 46.2116C39.9632 46.2258 39.9482 46.2644 39.9317 46.2977C39.8512 46.4689 39.7738 46.6417 39.6893 46.811C39.6466 46.8173 39.6021 46.8276 39.5854 46.8724C39.4093 47.1636 39.2327 47.4544 39.0567 47.7456C39.002 47.8384 38.9306 47.9254 38.9125 48.0349C38.691 48.13 38.4579 48.1875 38.2249 48.2477C38.1505 48.564 38.0718 48.8797 37.9967 49.1963C37.9704 49.2863 38.0276 49.3719 38.0495 49.4579C37.8116 49.6347 37.6289 49.875 37.4063 50.0697C37.2201 50.1992 37.0807 50.3813 36.9102 50.5288C36.7695 50.6644 36.6215 50.7927 36.4857 50.933C36.3893 51.074 36.2573 51.1835 36.1405 51.3066C36.1221 51.3075 36.0847 51.3094 36.0663 51.3103C35.8955 51.5 35.6772 51.6524 35.555 51.8815C35.2743 52.34 34.9934 52.7982 34.7114 53.2562C34.0359 53.3198 33.3602 53.3777 32.6849 53.4413C32.5705 53.4563 32.4466 53.4429 32.3426 53.5008C32.0197 53.6641 31.696 53.8255 31.3724 53.9867C30.8974 53.869 30.4217 53.7535 29.9456 53.639C29.7758 53.7955 29.5489 53.8633 29.3567 53.9867C29.287 53.9295 29.218 53.8716 29.1477 53.8162C28.8874 53.7881 28.6574 53.6527 28.4148 53.5645C28.0624 53.4171 27.7066 53.2785 27.3381 53.1759C27.1527 53.1257 26.975 53.0506 26.7883 53.0066C26.7771 52.9631 26.7651 52.9198 26.7303 52.8905C26.4928 52.6405 26.2509 52.3939 26.0157 52.1413C25.856 51.9417 25.6998 51.739 25.5438 51.5363C25.3514 51.2486 25.1795 50.9474 24.9876 50.6593C24.7395 50.329 24.4884 50.0013 24.2396 49.6717C24.2705 49.5981 24.2899 49.5144 24.3516 49.4591C24.511 49.3092 24.672 49.1609 24.8315 49.0114C25.3877 48.9671 25.9438 48.9194 26.5 48.8727C26.4768 48.8357 26.4542 48.7992 26.4316 48.7632C26.7148 48.0905 26.991 47.415 27.2713 46.741C27.3314 46.5794 27.4202 46.427 27.4495 46.2558C27.9621 45.8555 28.4744 45.4552 28.9854 45.0533C29.0596 44.9884 29.1696 44.9951 29.2431 44.9289C29.4936 44.7344 29.7455 44.5426 29.9969 44.3495C30.0805 44.2845 30.1712 44.2266 30.24 44.1448C30.4408 44.1725 30.605 44.016 30.8035 44.0364C30.9865 44.0471 31.1621 43.9899 31.3406 43.9599C31.3989 43.9441 31.471 43.9462 31.5121 43.8938C31.7785 43.6049 32.0451 43.3163 32.3114 43.0274C32.5733 43.049 32.8354 43.069 33.0973 43.0923C33.1985 43.1024 33.2832 43.013 33.3856 43.0346C33.6417 43.0652 33.8975 43.0998 34.1538 43.1317C34.7926 42.7874 35.4274 42.4361 36.0663 42.0915C36.0673 42.0743 36.0698 42.0399 36.0711 42.0228C36.4669 41.9814 36.856 41.8891 37.2484 41.8226C37.4033 41.7552 37.5726 41.7771 37.7375 41.7758C38.1327 41.3335 38.5253 40.889 38.9201 40.4464C38.9987 40.3601 39.0678 40.2638 39.1636 40.195C39.3939 39.9035 39.6535 39.6365 39.8957 39.3543C40.0348 39.1869 40.1992 39.039 40.3135 38.8519C40.366 38.7784 40.4287 38.7129 40.4869 38.6442C40.8672 38.6721 41.2464 38.7087 41.6267 38.7373C41.6906 38.7405 41.7536 38.7558 41.8147 38.7775C41.9054 38.7154 41.9877 38.6406 42.0817 38.5828C42.1803 38.548 42.2938 38.5652 42.3859 38.5086C42.5752 38.4004 42.7623 38.2877 42.9525 38.1811C43.0223 38.1382 43.1183 38.1783 43.18 38.1181C43.5685 37.8099 43.9516 37.4941 44.344 37.191C44.7924 37.1142 45.2486 37.0751 45.6994 37.0092C45.7647 36.8988 45.8691 36.8218 45.9604 36.7342C46.0599 36.6423 46.1571 36.5472 46.2595 36.4584C46.3574 36.4504 46.4316 36.383 46.509 36.3295C46.6642 36.2194 46.821 36.1113 46.977 36.0018C47.018 35.9815 47.0266 35.9369 47.0394 35.8978C47.1392 35.9397 47.2366 36.0031 47.3489 36.0024C48.0496 36.0231 48.7506 36.0419 49.4512 36.0671C49.5527 36.0757 49.6462 36.0279 49.7404 35.9961C50.1169 35.8618 50.4939 35.7285 50.8706 35.5942C50.9699 35.5591 51.0676 35.5163 51.1732 35.5029C51.6601 35.4421 52.1494 35.4045 52.6369 35.346L52.6368 35.346ZM52.5354 41.4402C52.9615 41.31 53.4006 41.2295 53.8438 41.1869C53.9796 41.1909 54.0687 41.3374 54.0544 41.4644C54.0277 41.5072 53.9875 41.5394 53.9522 41.5751C53.9542 41.8996 53.9243 42.2232 53.9182 42.5474C53.9033 42.9834 53.7645 43.4022 53.7223 43.835C53.6895 44.1913 53.6175 44.5419 53.5667 44.8958C53.5361 45.1154 53.4886 45.332 53.4368 45.5471C53.3232 45.8783 53.2294 46.2163 53.1568 46.5591C53.0308 47.1725 52.852 47.7755 52.6191 48.3571C52.426 48.885 52.1943 49.3974 51.982 49.9176C51.835 50.2308 51.6842 50.5425 51.5061 50.8391C51.3491 51.1014 51.2076 51.3721 51.0714 51.6452C50.8694 52.061 50.5999 52.439 50.3307 52.8129C50.1712 53.1089 49.9707 53.379 49.7776 53.653C49.6762 53.7777 49.5364 53.8639 49.4324 53.9865C49.2549 54.1595 49.1257 54.3743 48.9444 54.5438C48.8619 54.6224 48.796 54.715 48.7381 54.8127C48.5386 55.0495 48.2924 55.2417 48.0963 55.482C47.7288 55.8909 47.2913 56.2291 46.8617 56.5699C46.3664 56.9558 45.8477 57.3147 45.29 57.6052C44.9911 57.7952 44.6538 57.9076 44.3312 58.0485C44.0763 58.1657 43.7973 58.2115 43.5294 58.2881C42.8937 58.4679 42.2513 58.6388 41.5929 58.7079C41.285 58.7451 40.9775 58.7925 40.6689 58.8211C40.1916 58.823 39.7143 58.8233 39.2374 58.8209C38.9287 58.8005 38.6207 58.7747 38.3121 58.7623C38.1409 58.7597 37.9751 58.7151 37.8083 58.683C37.8571 58.6072 37.8908 58.5118 37.9777 58.4718C38.2554 58.3148 38.5326 58.1567 38.8087 57.9973C38.8651 57.9626 38.931 57.9524 38.9924 57.9296C39.239 57.8061 39.4614 57.634 39.7194 57.5337C39.5823 57.3552 39.7315 57.1334 39.6596 56.9393C39.9368 56.7706 40.2123 56.5992 40.4891 56.4302C40.5833 56.378 40.632 56.278 40.6947 56.1954C40.9206 55.8794 41.1452 55.5621 41.3727 55.2474C41.4281 55.1765 41.4313 55.081 41.4799 55.0066C41.543 54.8996 41.6065 54.7934 41.6679 54.6855C41.6862 54.6845 41.723 54.6824 41.7414 54.6813C42.0854 54.149 42.4361 53.6211 42.7776 53.0871C42.7428 53.0101 42.7851 52.9345 42.7956 52.858C42.824 52.6868 42.8463 52.5147 42.8742 52.3439C42.8858 52.2932 42.8774 52.2427 42.8616 52.1956C42.9338 51.9597 43.0168 51.7278 43.0922 51.4933C43.2452 51.1612 43.278 50.7904 43.375 50.4401C43.4518 50.4362 43.5341 50.4497 43.6057 50.4127C43.9348 50.259 44.264 50.1057 44.5931 49.9513C44.5652 49.8349 44.491 49.7235 44.4989 49.6023C44.7329 48.7495 44.9702 47.8974 45.2046 47.0446C45.2371 46.922 45.3953 46.8785 45.4102 46.7473C45.4617 46.5163 45.5142 46.2854 45.5668 46.0546C45.7026 45.9512 45.8303 45.8348 45.9874 45.7641C46.527 45.425 47.0632 45.08 47.6032 44.7412C47.7623 44.6581 47.8479 44.4844 47.9073 44.323C47.95 44.316 47.9863 44.2937 48.0038 44.2523C48.0926 44.0974 48.1797 43.9415 48.2694 43.7869C48.319 43.6987 48.3827 43.6138 48.3932 43.5097C48.4238 43.489 48.4546 43.4693 48.4862 43.4499C48.4865 43.4126 48.4883 43.3761 48.4915 43.3401C48.706 43.2707 48.9211 43.2039 49.1359 43.1345C49.2189 43.1059 49.3105 43.0907 49.378 43.0295C49.484 43.0254 49.5902 43.027 49.6969 43.0263C49.7108 42.9169 49.8143 42.8602 49.8811 42.7842C49.9854 42.6884 50.073 42.5729 50.1897 42.4911C50.4668 42.3394 50.752 42.2022 51.0364 42.0645C51.2807 41.9512 51.5124 41.8102 51.7645 41.7131C52.0202 41.6186 52.2658 41.4942 52.5354 41.4402V41.4402ZM54.9326 41.3361C54.9305 41.2467 55.0271 41.1763 55.1121 41.2011C55.6018 41.31 56.0733 41.4898 56.5264 41.704C56.8236 41.851 57.1055 42.0301 57.3619 42.2401C57.4208 42.289 57.4858 42.3295 57.5516 42.3692C57.7145 42.4664 57.8285 42.6229 57.9764 42.7393C58.1199 42.8511 58.2258 43 58.3465 43.1345C58.5329 43.3379 58.5963 43.6169 58.7534 43.8399C58.7862 43.9027 58.8622 43.9629 58.8342 44.0414C58.5552 44.9533 58.3449 45.887 58.0155 46.7833C57.8285 47.2695 57.5898 47.7328 57.3654 48.2028C57.1288 48.6833 56.8813 49.1586 56.6315 49.6324C56.3689 50.0376 56.0962 50.436 55.8309 50.8388C55.6785 51.0825 55.4678 51.281 55.2959 51.5101C55.0774 51.7997 54.8579 52.0893 54.6157 52.3598C54.4251 52.5821 54.2392 52.8094 54.0248 53.0099C53.6389 53.3776 53.3048 53.7965 52.9061 54.1516C52.4695 54.5506 51.9744 54.8776 51.4908 55.216C51.1132 55.4743 50.7561 55.763 50.3628 55.9987C50.1395 56.1501 49.897 56.2711 49.6768 56.4267C49.2526 56.6902 48.7874 56.8753 48.3382 57.0902C48.0015 57.2451 47.6649 57.3998 47.3229 57.541C47.1762 57.6017 47.0189 57.6291 46.8615 57.641C46.8421 57.6254 46.8029 57.5942 46.7835 57.5786C47.0126 57.4507 47.2433 57.3228 47.4479 57.157C47.6121 57.036 47.74 56.8732 47.9115 56.7618C48.1326 56.6164 48.3401 56.4483 48.5186 56.252C48.587 56.1728 48.6605 56.0964 48.7496 56.0398C48.8865 55.9554 48.9755 55.8182 49.0942 55.7133C49.3482 55.459 49.603 55.2058 49.8562 54.9509C50.0691 54.7157 50.2638 54.465 50.4592 54.2156C50.6192 54.0042 50.8067 53.8127 50.9346 53.5781C51.0644 53.3331 51.2569 53.1289 51.3849 52.8826C51.551 52.5679 51.7587 52.2783 51.9397 51.9725C52.0241 51.8258 52.129 51.6922 52.2115 51.5443C52.3193 51.3615 52.3913 51.1605 52.5046 50.981C52.6347 50.7745 52.6973 50.5358 52.7975 50.3153C52.8787 50.141 52.9334 49.9538 53.0371 49.7906C53.2199 49.4747 53.3576 49.1342 53.4607 48.7848C53.5733 48.4685 53.6875 48.1526 53.7751 47.8286C53.8546 47.5623 53.9017 47.2871 53.9924 47.0243C54.0799 46.7397 54.2304 46.4737 54.2594 46.1733C54.386 45.4829 54.5234 44.7942 54.652 44.1041C54.7321 43.5982 54.7728 43.0865 54.8072 42.5758C54.8219 42.395 54.861 42.2169 54.8635 42.0355C54.8705 41.8006 54.9167 41.5696 54.9326 41.3361L54.9326 41.3361Z" fill="#A0A0A3"/>
</svg>
