<svg width="118" height="46" viewBox="0 0 118 46" fill="none" xmlns="http://www.w3.org/2000/svg">
<path d="M14.5872 43.6812C14.6298 42.7092 14.7851 41.6122 14.7851 41.6122C14.7851 41.6122 14.5447 41.0719 14.4041 40.6934C14.2636 40.3149 14.4041 40.3829 14.4467 40.2487C14.4698 39.9249 14.386 39.6023 14.2081 39.33C13.914 38.9 13.2241 37.4557 13.1816 37.4557C13.1391 37.4557 13.422 37.0662 13.422 37.0662L12.8302 35.7616C12.8302 35.7616 9.47144 33.2626 8.05285 31.9579C6.63426 30.6533 4.00608 26.2617 3.76564 26.2231C3.51502 26.2078 3.26378 26.2408 3.02583 26.3205C3.02583 26.3205 2.87232 25.8887 2.67442 25.2511C2.5764 24.9461 2.14176 23.9042 1.73301 22.8899C1.33906 21.9179 0.974703 20.9605 0.974703 20.6849C0.974703 20.1006 0.974702 19.2829 1.11527 18.6986C1.25583 18.1142 2.09922 17.2543 2.04003 17.2543C1.98085 17.2543 1.84398 16.964 1.84398 16.964C1.84398 16.964 1.21144 17.3792 0.438338 16.7545C-0.334766 16.1297 0.242289 14.34 1.64793 10.9645C3.05358 7.58904 3.65652 6.93856 3.95245 6.70336C4.08756 6.55821 4.24958 6.44029 4.42963 6.35608L5.89076 6.31381L6.08865 6.07678L7.4647 6.02165C7.4647 6.02165 8.34878 5.97939 7.99922 3.75969C7.87796 3.47637 7.77962 3.18389 7.70514 2.88504C7.70514 2.74539 7.90119 2.55062 7.94373 2.51754C8.41536 2.04898 8.41536 2.14085 8.4764 0.781102L9.12373 0.296005L9.50289 0.00384352H2.93706C2.16281 0.000419175 1.41879 0.302209 0.868201 0.843021C0.317607 1.38383 0.00537932 2.11951 0 2.88871V43.0987C0.00391277 43.8699 0.315137 44.6081 0.86557 45.1519C1.416 45.6956 2.16083 46.0006 2.93706 46.0001H15.144C15.144 46.0001 14.5447 45.2651 14.5872 43.6812Z" fill="#003399"/>
<path d="M5.55046 43.5341H3.87848L2.86494 38.9661V43.5341H1.77002V37.7019H3.72312L4.44074 41.4926L4.45369 37.7019H5.55046V43.5341Z" fill="white"/>
<path d="M9.27902 39.3262C9.27902 39.8774 9.12551 40.2854 8.22479 40.4287V40.4563C8.9646 40.5114 9.27902 40.7907 9.27902 41.7205V42.2331C9.27902 43.2327 8.72417 43.5396 7.61445 43.5396H5.97021V37.7H7.61445C8.48558 37.7 9.27902 37.9922 9.27902 38.8797V39.3262Z" fill="white"/>
<path d="M11.7184 43.5341L11.5649 41.9502H10.8898L10.679 43.5341H9.42871L10.4811 37.7019H12.3362L13.1796 43.5341H11.7184Z" fill="white"/>
<path d="M7.5477 38.5379H7.37939V40.1365H7.5477C7.77335 40.1365 7.87137 40.0392 7.87137 39.769V38.9238C7.87137 38.6353 7.7678 38.5379 7.5477 38.5379Z" fill="#003399"/>
<path d="M7.5477 40.8587H7.37939V42.6962H7.5477C7.77335 42.6962 7.87137 42.6539 7.87137 42.4187V41.1325C7.87137 40.9009 7.7678 40.8587 7.5477 40.8587Z" fill="#003399"/>
<path d="M11.0234 41.1196H11.4729L11.2472 38.718L11.0234 41.1196Z" fill="#003399"/>
<path d="M16.0908 26.7706C15.2606 26.7731 14.4561 26.4848 13.8188 25.9564C13.1814 25.4279 12.752 24.6931 12.606 23.8812C12.46 23.0693 12.6068 22.2323 13.0205 21.5172C13.4343 20.8022 14.0885 20.255 14.8682 19.9718C14.9364 19.8517 15.0117 19.7357 15.0939 19.6245C14.9142 19.2244 14.7027 18.8391 14.4613 18.4724C14.0119 17.7926 13.3794 16.1535 13.1833 15.5839C12.9873 15.0143 12.6488 12.4877 12.5508 12.4454C12.4527 12.4032 12.4102 12.4454 11.9737 12.6402C11.5372 12.835 11.1451 13.559 10.9898 13.8897C10.8344 14.2205 10.065 16.306 10.0206 16.306C9.97622 16.306 10.2167 16.5412 10.2167 16.5412C10.4464 16.6777 10.6588 16.8412 10.8492 17.0282C10.9898 17.2229 12.1698 21.4565 12.1698 21.4565L11.8757 21.9435C11.8757 21.9435 11.946 22.3459 12.0606 22.9008C12.1864 23.4851 12.3547 24.2477 12.5526 24.922C12.9447 26.2671 13.3812 28.3931 13.3812 28.3931C13.3812 28.3931 13.9712 29.3651 14.4632 30.3776C14.9552 31.3901 15.5359 35.1 15.5359 35.1422C15.5359 35.1845 16.3663 36.5038 16.4607 37.0312C16.555 37.5585 16.2221 38.7658 16.2221 38.7658C16.2354 39.1378 16.2681 39.5088 16.3201 39.8774C16.3574 40.112 16.4383 40.3375 16.5587 40.5426C16.6993 40.7374 16.6993 41.1674 16.6993 41.3622C16.6993 41.5569 17.4872 44.0706 17.4872 44.3481C17.4872 44.6255 16.9526 45.4506 16.7566 45.6104C16.7141 45.6398 16.3867 45.9779 16.3626 46C17.1218 45.9753 17.8417 45.6592 18.3711 45.1181C18.9005 44.5771 19.1983 43.8532 19.2017 43.0986V24.9643C18.8934 25.5145 18.4421 25.9724 17.8948 26.2901C17.3476 26.6078 16.7246 26.7738 16.0908 26.7706Z" fill="#FA002C"/>
<path d="M16.261 5.84431e-05H11.7352C11.8333 0.0404834 12.8172 0.694633 13.0003 0.918808C13.1834 1.14298 13.1409 1.5013 13.0428 1.93127C12.9611 2.2559 12.8623 2.57606 12.7469 2.89045C12.7469 2.89045 12.6064 3.2359 12.6489 3.27816C12.6967 3.35478 12.73 3.43949 12.7469 3.52806C12.7469 3.52806 12.1699 4.58278 12.1144 4.63056C12.0589 4.67833 11.3283 5.99214 11.0879 6.08769C10.9843 6.11893 10.9029 6.39456 10.9899 6.46438C11.1212 6.56361 11.7297 7.00461 11.7297 7.00461L12.0256 7.04687L12.7562 7.53197C12.8258 7.72143 12.9672 7.87637 13.1501 7.96378C13.725 8.3671 14.2361 8.85325 14.6667 9.40622C15.1032 9.99054 15.2013 11.2952 15.2438 12.2948C15.2863 13.2944 15.6932 15.4883 15.7783 15.628C15.8634 15.7676 16.5644 17.4655 16.7031 17.8899C16.8271 18.35 16.9119 18.8196 16.9565 19.2938L17.6315 20.1115C18.2915 20.4232 18.8404 20.9269 19.2055 21.5558V2.88861C19.2031 2.50686 19.125 2.12933 18.9757 1.77757C18.8264 1.4258 18.6088 1.1067 18.3354 0.838468C18.062 0.57024 17.7381 0.358146 17.3822 0.214291C17.0262 0.0704368 16.6453 -0.00236223 16.261 5.84431e-05Z" fill="#FA002C"/>
<path d="M57.8293 46H44.6403L36.6614 9.97767V46H28.0186V0.0129204H43.4214L49.0736 29.9053L49.1846 0.0129204H57.8293V46Z" fill="white"/>
<path d="M87.2405 12.824C87.2405 17.2046 86.0217 20.3779 78.9287 21.4731V21.6936C84.6919 22.1309 87.2405 24.3212 87.2405 31.6565V35.699C87.2405 43.5818 82.8016 45.989 74.1625 45.989H61.1973V0.0129204H74.1662C81.039 0.0129204 87.2442 2.31163 87.2442 9.31985L87.2405 12.824Z" fill="white"/>
<path d="M106.474 46L105.255 33.5179H99.9355L98.2727 46H88.4092L96.7228 0.0129242H111.349L118 46H106.474Z" fill="white"/>
<path d="M73.5871 6.61321H72.2573V19.2038H73.5871C75.359 19.2038 76.1358 18.4375 76.1358 16.2472V9.56791C76.1358 7.38128 75.359 6.61321 73.5871 6.61321Z" fill="black"/>
<path d="M73.5871 24.9092H72.2573V39.4714H73.5871C75.359 39.4714 76.1358 39.1424 76.1358 37.2811V27.0995C76.1358 25.2363 75.359 24.9092 73.5871 24.9092Z" fill="black"/>
<path d="M100.984 26.958H104.53L102.758 8.01522L100.984 26.958Z" fill="black"/>
</svg>
