<svg width="280" height="280" viewBox="0 0 280 280" fill="none" xmlns="http://www.w3.org/2000/svg">
<path d="M140 0.5C217.044 0.499997 279.5 62.9563 279.5 140L280.5 140C280.5 62.404 217.596 -0.500003 140 -0.5L140 0.5ZM279.5 140C279.5 217.044 217.044 279.5 140 279.5L140 280.5C217.596 280.5 280.5 217.596 280.5 140L279.5 140ZM140 279.5C62.9563 279.5 0.500003 217.044 0.5 140L-0.5 140C-0.499997 217.596 62.404 280.5 140 280.5L140 279.5ZM0.5 140C0.499997 62.9563 62.9563 0.500003 140 0.5L140 -0.5C62.404 -0.499997 -0.500003 62.404 -0.5 140L0.5 140ZM6.08135e-06 139.625H280V138.625H6.08135e-06V139.625ZM140.375 6.08659e-06L140.375 280L141.375 280L141.375 5.92311e-06L140.375 6.08659e-06ZM54.6594 248.787C79.8165 212.918 115.045 119.195 54.6622 31.2171L53.8378 31.7829C113.893 119.285 78.866 212.532 53.8407 248.213L54.6594 248.787ZM225.341 31.2129C200.184 67.0818 164.955 160.805 225.338 248.783L226.162 248.217C166.107 160.715 201.134 67.4682 226.159 31.7871L225.341 31.2129Z" fill="white"/>
</svg>
